%TF.GenerationSoftware,KiCad,Pcbnew,8.0.6*%
%TF.CreationDate,2024-11-20T23:28:49-08:00*%
%TF.ProjectId,411 Schematic,34313120-5363-4686-956d-617469632e6b,4*%
%TF.SameCoordinates,Original*%
%TF.FileFunction,Legend,Top*%
%TF.FilePolarity,Positive*%
%FSLAX46Y46*%
G04 Gerber Fmt 4.6, Leading zero omitted, Abs format (unit mm)*
G04 Created by KiCad (PCBNEW 8.0.6) date 2024-11-20 23:28:49*
%MOMM*%
%LPD*%
G01*
G04 APERTURE LIST*
%ADD10C,0.100000*%
%ADD11C,0.125000*%
%ADD12C,0.150000*%
%ADD13C,0.120000*%
%ADD14C,0.152400*%
G04 APERTURE END LIST*
D10*
X141446741Y-85542419D02*
X141399122Y-85518609D01*
X141399122Y-85518609D02*
X141327693Y-85518609D01*
X141327693Y-85518609D02*
X141256265Y-85542419D01*
X141256265Y-85542419D02*
X141208646Y-85590038D01*
X141208646Y-85590038D02*
X141184836Y-85637657D01*
X141184836Y-85637657D02*
X141161027Y-85732895D01*
X141161027Y-85732895D02*
X141161027Y-85804323D01*
X141161027Y-85804323D02*
X141184836Y-85899561D01*
X141184836Y-85899561D02*
X141208646Y-85947180D01*
X141208646Y-85947180D02*
X141256265Y-85994800D01*
X141256265Y-85994800D02*
X141327693Y-86018609D01*
X141327693Y-86018609D02*
X141375312Y-86018609D01*
X141375312Y-86018609D02*
X141446741Y-85994800D01*
X141446741Y-85994800D02*
X141470550Y-85970990D01*
X141470550Y-85970990D02*
X141470550Y-85804323D01*
X141470550Y-85804323D02*
X141375312Y-85804323D01*
X141684836Y-86018609D02*
X141684836Y-85518609D01*
X141684836Y-85518609D02*
X141970550Y-86018609D01*
X141970550Y-86018609D02*
X141970550Y-85518609D01*
X142208646Y-86018609D02*
X142208646Y-85518609D01*
X142208646Y-85518609D02*
X142327694Y-85518609D01*
X142327694Y-85518609D02*
X142399122Y-85542419D01*
X142399122Y-85542419D02*
X142446741Y-85590038D01*
X142446741Y-85590038D02*
X142470551Y-85637657D01*
X142470551Y-85637657D02*
X142494360Y-85732895D01*
X142494360Y-85732895D02*
X142494360Y-85804323D01*
X142494360Y-85804323D02*
X142470551Y-85899561D01*
X142470551Y-85899561D02*
X142446741Y-85947180D01*
X142446741Y-85947180D02*
X142399122Y-85994800D01*
X142399122Y-85994800D02*
X142327694Y-86018609D01*
X142327694Y-86018609D02*
X142208646Y-86018609D01*
X90946741Y-86542419D02*
X90899122Y-86518609D01*
X90899122Y-86518609D02*
X90827693Y-86518609D01*
X90827693Y-86518609D02*
X90756265Y-86542419D01*
X90756265Y-86542419D02*
X90708646Y-86590038D01*
X90708646Y-86590038D02*
X90684836Y-86637657D01*
X90684836Y-86637657D02*
X90661027Y-86732895D01*
X90661027Y-86732895D02*
X90661027Y-86804323D01*
X90661027Y-86804323D02*
X90684836Y-86899561D01*
X90684836Y-86899561D02*
X90708646Y-86947180D01*
X90708646Y-86947180D02*
X90756265Y-86994800D01*
X90756265Y-86994800D02*
X90827693Y-87018609D01*
X90827693Y-87018609D02*
X90875312Y-87018609D01*
X90875312Y-87018609D02*
X90946741Y-86994800D01*
X90946741Y-86994800D02*
X90970550Y-86970990D01*
X90970550Y-86970990D02*
X90970550Y-86804323D01*
X90970550Y-86804323D02*
X90875312Y-86804323D01*
X91184836Y-87018609D02*
X91184836Y-86518609D01*
X91184836Y-86518609D02*
X91470550Y-87018609D01*
X91470550Y-87018609D02*
X91470550Y-86518609D01*
X91708646Y-87018609D02*
X91708646Y-86518609D01*
X91708646Y-86518609D02*
X91827694Y-86518609D01*
X91827694Y-86518609D02*
X91899122Y-86542419D01*
X91899122Y-86542419D02*
X91946741Y-86590038D01*
X91946741Y-86590038D02*
X91970551Y-86637657D01*
X91970551Y-86637657D02*
X91994360Y-86732895D01*
X91994360Y-86732895D02*
X91994360Y-86804323D01*
X91994360Y-86804323D02*
X91970551Y-86899561D01*
X91970551Y-86899561D02*
X91946741Y-86947180D01*
X91946741Y-86947180D02*
X91899122Y-86994800D01*
X91899122Y-86994800D02*
X91827694Y-87018609D01*
X91827694Y-87018609D02*
X91708646Y-87018609D01*
X150422931Y-69518609D02*
X150184836Y-69518609D01*
X150184836Y-69518609D02*
X150161027Y-69756704D01*
X150161027Y-69756704D02*
X150184836Y-69732895D01*
X150184836Y-69732895D02*
X150232455Y-69709085D01*
X150232455Y-69709085D02*
X150351503Y-69709085D01*
X150351503Y-69709085D02*
X150399122Y-69732895D01*
X150399122Y-69732895D02*
X150422931Y-69756704D01*
X150422931Y-69756704D02*
X150446741Y-69804323D01*
X150446741Y-69804323D02*
X150446741Y-69923371D01*
X150446741Y-69923371D02*
X150422931Y-69970990D01*
X150422931Y-69970990D02*
X150399122Y-69994800D01*
X150399122Y-69994800D02*
X150351503Y-70018609D01*
X150351503Y-70018609D02*
X150232455Y-70018609D01*
X150232455Y-70018609D02*
X150184836Y-69994800D01*
X150184836Y-69994800D02*
X150161027Y-69970990D01*
X150589598Y-69518609D02*
X150756264Y-70018609D01*
X150756264Y-70018609D02*
X150922931Y-69518609D01*
X137637217Y-65518609D02*
X137946741Y-65518609D01*
X137946741Y-65518609D02*
X137780074Y-65709085D01*
X137780074Y-65709085D02*
X137851503Y-65709085D01*
X137851503Y-65709085D02*
X137899122Y-65732895D01*
X137899122Y-65732895D02*
X137922931Y-65756704D01*
X137922931Y-65756704D02*
X137946741Y-65804323D01*
X137946741Y-65804323D02*
X137946741Y-65923371D01*
X137946741Y-65923371D02*
X137922931Y-65970990D01*
X137922931Y-65970990D02*
X137899122Y-65994800D01*
X137899122Y-65994800D02*
X137851503Y-66018609D01*
X137851503Y-66018609D02*
X137708646Y-66018609D01*
X137708646Y-66018609D02*
X137661027Y-65994800D01*
X137661027Y-65994800D02*
X137637217Y-65970990D01*
X138161026Y-65970990D02*
X138184836Y-65994800D01*
X138184836Y-65994800D02*
X138161026Y-66018609D01*
X138161026Y-66018609D02*
X138137217Y-65994800D01*
X138137217Y-65994800D02*
X138161026Y-65970990D01*
X138161026Y-65970990D02*
X138161026Y-66018609D01*
X138351502Y-65518609D02*
X138661026Y-65518609D01*
X138661026Y-65518609D02*
X138494359Y-65709085D01*
X138494359Y-65709085D02*
X138565788Y-65709085D01*
X138565788Y-65709085D02*
X138613407Y-65732895D01*
X138613407Y-65732895D02*
X138637216Y-65756704D01*
X138637216Y-65756704D02*
X138661026Y-65804323D01*
X138661026Y-65804323D02*
X138661026Y-65923371D01*
X138661026Y-65923371D02*
X138637216Y-65970990D01*
X138637216Y-65970990D02*
X138613407Y-65994800D01*
X138613407Y-65994800D02*
X138565788Y-66018609D01*
X138565788Y-66018609D02*
X138422931Y-66018609D01*
X138422931Y-66018609D02*
X138375312Y-65994800D01*
X138375312Y-65994800D02*
X138351502Y-65970990D01*
X138803883Y-65518609D02*
X138970549Y-66018609D01*
X138970549Y-66018609D02*
X139137216Y-65518609D01*
X120018169Y-84566228D02*
X119970550Y-84542419D01*
X119970550Y-84542419D02*
X119922931Y-84494800D01*
X119922931Y-84494800D02*
X119851503Y-84423371D01*
X119851503Y-84423371D02*
X119803884Y-84399561D01*
X119803884Y-84399561D02*
X119756265Y-84399561D01*
X119780074Y-84518609D02*
X119732455Y-84494800D01*
X119732455Y-84494800D02*
X119684836Y-84447180D01*
X119684836Y-84447180D02*
X119661027Y-84351942D01*
X119661027Y-84351942D02*
X119661027Y-84185276D01*
X119661027Y-84185276D02*
X119684836Y-84090038D01*
X119684836Y-84090038D02*
X119732455Y-84042419D01*
X119732455Y-84042419D02*
X119780074Y-84018609D01*
X119780074Y-84018609D02*
X119875312Y-84018609D01*
X119875312Y-84018609D02*
X119922931Y-84042419D01*
X119922931Y-84042419D02*
X119970550Y-84090038D01*
X119970550Y-84090038D02*
X119994360Y-84185276D01*
X119994360Y-84185276D02*
X119994360Y-84351942D01*
X119994360Y-84351942D02*
X119970550Y-84447180D01*
X119970550Y-84447180D02*
X119922931Y-84494800D01*
X119922931Y-84494800D02*
X119875312Y-84518609D01*
X119875312Y-84518609D02*
X119780074Y-84518609D01*
X120184837Y-84066228D02*
X120208646Y-84042419D01*
X120208646Y-84042419D02*
X120256265Y-84018609D01*
X120256265Y-84018609D02*
X120375313Y-84018609D01*
X120375313Y-84018609D02*
X120422932Y-84042419D01*
X120422932Y-84042419D02*
X120446741Y-84066228D01*
X120446741Y-84066228D02*
X120470551Y-84113847D01*
X120470551Y-84113847D02*
X120470551Y-84161466D01*
X120470551Y-84161466D02*
X120446741Y-84232895D01*
X120446741Y-84232895D02*
X120161027Y-84518609D01*
X120161027Y-84518609D02*
X120470551Y-84518609D01*
X121208645Y-84709085D02*
X121184836Y-84685276D01*
X121184836Y-84685276D02*
X121137217Y-84613847D01*
X121137217Y-84613847D02*
X121113407Y-84566228D01*
X121113407Y-84566228D02*
X121089598Y-84494800D01*
X121089598Y-84494800D02*
X121065788Y-84375752D01*
X121065788Y-84375752D02*
X121065788Y-84280514D01*
X121065788Y-84280514D02*
X121089598Y-84161466D01*
X121089598Y-84161466D02*
X121113407Y-84090038D01*
X121113407Y-84090038D02*
X121137217Y-84042419D01*
X121137217Y-84042419D02*
X121184836Y-83970990D01*
X121184836Y-83970990D02*
X121208645Y-83947180D01*
X121565788Y-84256704D02*
X121637216Y-84280514D01*
X121637216Y-84280514D02*
X121661026Y-84304323D01*
X121661026Y-84304323D02*
X121684835Y-84351942D01*
X121684835Y-84351942D02*
X121684835Y-84423371D01*
X121684835Y-84423371D02*
X121661026Y-84470990D01*
X121661026Y-84470990D02*
X121637216Y-84494800D01*
X121637216Y-84494800D02*
X121589597Y-84518609D01*
X121589597Y-84518609D02*
X121399121Y-84518609D01*
X121399121Y-84518609D02*
X121399121Y-84018609D01*
X121399121Y-84018609D02*
X121565788Y-84018609D01*
X121565788Y-84018609D02*
X121613407Y-84042419D01*
X121613407Y-84042419D02*
X121637216Y-84066228D01*
X121637216Y-84066228D02*
X121661026Y-84113847D01*
X121661026Y-84113847D02*
X121661026Y-84161466D01*
X121661026Y-84161466D02*
X121637216Y-84209085D01*
X121637216Y-84209085D02*
X121613407Y-84232895D01*
X121613407Y-84232895D02*
X121565788Y-84256704D01*
X121565788Y-84256704D02*
X121399121Y-84256704D01*
X122113407Y-84518609D02*
X122113407Y-84256704D01*
X122113407Y-84256704D02*
X122089597Y-84209085D01*
X122089597Y-84209085D02*
X122041978Y-84185276D01*
X122041978Y-84185276D02*
X121946740Y-84185276D01*
X121946740Y-84185276D02*
X121899121Y-84209085D01*
X122113407Y-84494800D02*
X122065788Y-84518609D01*
X122065788Y-84518609D02*
X121946740Y-84518609D01*
X121946740Y-84518609D02*
X121899121Y-84494800D01*
X121899121Y-84494800D02*
X121875312Y-84447180D01*
X121875312Y-84447180D02*
X121875312Y-84399561D01*
X121875312Y-84399561D02*
X121899121Y-84351942D01*
X121899121Y-84351942D02*
X121946740Y-84328133D01*
X121946740Y-84328133D02*
X122065788Y-84328133D01*
X122065788Y-84328133D02*
X122113407Y-84304323D01*
X122327693Y-84494800D02*
X122375312Y-84518609D01*
X122375312Y-84518609D02*
X122470550Y-84518609D01*
X122470550Y-84518609D02*
X122518169Y-84494800D01*
X122518169Y-84494800D02*
X122541978Y-84447180D01*
X122541978Y-84447180D02*
X122541978Y-84423371D01*
X122541978Y-84423371D02*
X122518169Y-84375752D01*
X122518169Y-84375752D02*
X122470550Y-84351942D01*
X122470550Y-84351942D02*
X122399121Y-84351942D01*
X122399121Y-84351942D02*
X122351502Y-84328133D01*
X122351502Y-84328133D02*
X122327693Y-84280514D01*
X122327693Y-84280514D02*
X122327693Y-84256704D01*
X122327693Y-84256704D02*
X122351502Y-84209085D01*
X122351502Y-84209085D02*
X122399121Y-84185276D01*
X122399121Y-84185276D02*
X122470550Y-84185276D01*
X122470550Y-84185276D02*
X122518169Y-84209085D01*
X122946740Y-84494800D02*
X122899121Y-84518609D01*
X122899121Y-84518609D02*
X122803883Y-84518609D01*
X122803883Y-84518609D02*
X122756264Y-84494800D01*
X122756264Y-84494800D02*
X122732455Y-84447180D01*
X122732455Y-84447180D02*
X122732455Y-84256704D01*
X122732455Y-84256704D02*
X122756264Y-84209085D01*
X122756264Y-84209085D02*
X122803883Y-84185276D01*
X122803883Y-84185276D02*
X122899121Y-84185276D01*
X122899121Y-84185276D02*
X122946740Y-84209085D01*
X122946740Y-84209085D02*
X122970550Y-84256704D01*
X122970550Y-84256704D02*
X122970550Y-84304323D01*
X122970550Y-84304323D02*
X122732455Y-84351942D01*
X123137216Y-84709085D02*
X123161026Y-84685276D01*
X123161026Y-84685276D02*
X123208645Y-84613847D01*
X123208645Y-84613847D02*
X123232454Y-84566228D01*
X123232454Y-84566228D02*
X123256264Y-84494800D01*
X123256264Y-84494800D02*
X123280073Y-84375752D01*
X123280073Y-84375752D02*
X123280073Y-84280514D01*
X123280073Y-84280514D02*
X123256264Y-84161466D01*
X123256264Y-84161466D02*
X123232454Y-84090038D01*
X123232454Y-84090038D02*
X123208645Y-84042419D01*
X123208645Y-84042419D02*
X123161026Y-83970990D01*
X123161026Y-83970990D02*
X123137216Y-83947180D01*
X117018169Y-76066228D02*
X116970550Y-76042419D01*
X116970550Y-76042419D02*
X116922931Y-75994800D01*
X116922931Y-75994800D02*
X116851503Y-75923371D01*
X116851503Y-75923371D02*
X116803884Y-75899561D01*
X116803884Y-75899561D02*
X116756265Y-75899561D01*
X116780074Y-76018609D02*
X116732455Y-75994800D01*
X116732455Y-75994800D02*
X116684836Y-75947180D01*
X116684836Y-75947180D02*
X116661027Y-75851942D01*
X116661027Y-75851942D02*
X116661027Y-75685276D01*
X116661027Y-75685276D02*
X116684836Y-75590038D01*
X116684836Y-75590038D02*
X116732455Y-75542419D01*
X116732455Y-75542419D02*
X116780074Y-75518609D01*
X116780074Y-75518609D02*
X116875312Y-75518609D01*
X116875312Y-75518609D02*
X116922931Y-75542419D01*
X116922931Y-75542419D02*
X116970550Y-75590038D01*
X116970550Y-75590038D02*
X116994360Y-75685276D01*
X116994360Y-75685276D02*
X116994360Y-75851942D01*
X116994360Y-75851942D02*
X116970550Y-75947180D01*
X116970550Y-75947180D02*
X116922931Y-75994800D01*
X116922931Y-75994800D02*
X116875312Y-76018609D01*
X116875312Y-76018609D02*
X116780074Y-76018609D01*
X117470551Y-76018609D02*
X117184837Y-76018609D01*
X117327694Y-76018609D02*
X117327694Y-75518609D01*
X117327694Y-75518609D02*
X117280075Y-75590038D01*
X117280075Y-75590038D02*
X117232456Y-75637657D01*
X117232456Y-75637657D02*
X117184837Y-75661466D01*
X118208645Y-76209085D02*
X118184836Y-76185276D01*
X118184836Y-76185276D02*
X118137217Y-76113847D01*
X118137217Y-76113847D02*
X118113407Y-76066228D01*
X118113407Y-76066228D02*
X118089598Y-75994800D01*
X118089598Y-75994800D02*
X118065788Y-75875752D01*
X118065788Y-75875752D02*
X118065788Y-75780514D01*
X118065788Y-75780514D02*
X118089598Y-75661466D01*
X118089598Y-75661466D02*
X118113407Y-75590038D01*
X118113407Y-75590038D02*
X118137217Y-75542419D01*
X118137217Y-75542419D02*
X118184836Y-75470990D01*
X118184836Y-75470990D02*
X118208645Y-75447180D01*
X118565788Y-75756704D02*
X118637216Y-75780514D01*
X118637216Y-75780514D02*
X118661026Y-75804323D01*
X118661026Y-75804323D02*
X118684835Y-75851942D01*
X118684835Y-75851942D02*
X118684835Y-75923371D01*
X118684835Y-75923371D02*
X118661026Y-75970990D01*
X118661026Y-75970990D02*
X118637216Y-75994800D01*
X118637216Y-75994800D02*
X118589597Y-76018609D01*
X118589597Y-76018609D02*
X118399121Y-76018609D01*
X118399121Y-76018609D02*
X118399121Y-75518609D01*
X118399121Y-75518609D02*
X118565788Y-75518609D01*
X118565788Y-75518609D02*
X118613407Y-75542419D01*
X118613407Y-75542419D02*
X118637216Y-75566228D01*
X118637216Y-75566228D02*
X118661026Y-75613847D01*
X118661026Y-75613847D02*
X118661026Y-75661466D01*
X118661026Y-75661466D02*
X118637216Y-75709085D01*
X118637216Y-75709085D02*
X118613407Y-75732895D01*
X118613407Y-75732895D02*
X118565788Y-75756704D01*
X118565788Y-75756704D02*
X118399121Y-75756704D01*
X119113407Y-76018609D02*
X119113407Y-75756704D01*
X119113407Y-75756704D02*
X119089597Y-75709085D01*
X119089597Y-75709085D02*
X119041978Y-75685276D01*
X119041978Y-75685276D02*
X118946740Y-75685276D01*
X118946740Y-75685276D02*
X118899121Y-75709085D01*
X119113407Y-75994800D02*
X119065788Y-76018609D01*
X119065788Y-76018609D02*
X118946740Y-76018609D01*
X118946740Y-76018609D02*
X118899121Y-75994800D01*
X118899121Y-75994800D02*
X118875312Y-75947180D01*
X118875312Y-75947180D02*
X118875312Y-75899561D01*
X118875312Y-75899561D02*
X118899121Y-75851942D01*
X118899121Y-75851942D02*
X118946740Y-75828133D01*
X118946740Y-75828133D02*
X119065788Y-75828133D01*
X119065788Y-75828133D02*
X119113407Y-75804323D01*
X119327693Y-75994800D02*
X119375312Y-76018609D01*
X119375312Y-76018609D02*
X119470550Y-76018609D01*
X119470550Y-76018609D02*
X119518169Y-75994800D01*
X119518169Y-75994800D02*
X119541978Y-75947180D01*
X119541978Y-75947180D02*
X119541978Y-75923371D01*
X119541978Y-75923371D02*
X119518169Y-75875752D01*
X119518169Y-75875752D02*
X119470550Y-75851942D01*
X119470550Y-75851942D02*
X119399121Y-75851942D01*
X119399121Y-75851942D02*
X119351502Y-75828133D01*
X119351502Y-75828133D02*
X119327693Y-75780514D01*
X119327693Y-75780514D02*
X119327693Y-75756704D01*
X119327693Y-75756704D02*
X119351502Y-75709085D01*
X119351502Y-75709085D02*
X119399121Y-75685276D01*
X119399121Y-75685276D02*
X119470550Y-75685276D01*
X119470550Y-75685276D02*
X119518169Y-75709085D01*
X119946740Y-75994800D02*
X119899121Y-76018609D01*
X119899121Y-76018609D02*
X119803883Y-76018609D01*
X119803883Y-76018609D02*
X119756264Y-75994800D01*
X119756264Y-75994800D02*
X119732455Y-75947180D01*
X119732455Y-75947180D02*
X119732455Y-75756704D01*
X119732455Y-75756704D02*
X119756264Y-75709085D01*
X119756264Y-75709085D02*
X119803883Y-75685276D01*
X119803883Y-75685276D02*
X119899121Y-75685276D01*
X119899121Y-75685276D02*
X119946740Y-75709085D01*
X119946740Y-75709085D02*
X119970550Y-75756704D01*
X119970550Y-75756704D02*
X119970550Y-75804323D01*
X119970550Y-75804323D02*
X119732455Y-75851942D01*
X120137216Y-76209085D02*
X120161026Y-76185276D01*
X120161026Y-76185276D02*
X120208645Y-76113847D01*
X120208645Y-76113847D02*
X120232454Y-76066228D01*
X120232454Y-76066228D02*
X120256264Y-75994800D01*
X120256264Y-75994800D02*
X120280073Y-75875752D01*
X120280073Y-75875752D02*
X120280073Y-75780514D01*
X120280073Y-75780514D02*
X120256264Y-75661466D01*
X120256264Y-75661466D02*
X120232454Y-75590038D01*
X120232454Y-75590038D02*
X120208645Y-75542419D01*
X120208645Y-75542419D02*
X120161026Y-75470990D01*
X120161026Y-75470990D02*
X120137216Y-75447180D01*
X117018169Y-63066228D02*
X116970550Y-63042419D01*
X116970550Y-63042419D02*
X116922931Y-62994800D01*
X116922931Y-62994800D02*
X116851503Y-62923371D01*
X116851503Y-62923371D02*
X116803884Y-62899561D01*
X116803884Y-62899561D02*
X116756265Y-62899561D01*
X116780074Y-63018609D02*
X116732455Y-62994800D01*
X116732455Y-62994800D02*
X116684836Y-62947180D01*
X116684836Y-62947180D02*
X116661027Y-62851942D01*
X116661027Y-62851942D02*
X116661027Y-62685276D01*
X116661027Y-62685276D02*
X116684836Y-62590038D01*
X116684836Y-62590038D02*
X116732455Y-62542419D01*
X116732455Y-62542419D02*
X116780074Y-62518609D01*
X116780074Y-62518609D02*
X116875312Y-62518609D01*
X116875312Y-62518609D02*
X116922931Y-62542419D01*
X116922931Y-62542419D02*
X116970550Y-62590038D01*
X116970550Y-62590038D02*
X116994360Y-62685276D01*
X116994360Y-62685276D02*
X116994360Y-62851942D01*
X116994360Y-62851942D02*
X116970550Y-62947180D01*
X116970550Y-62947180D02*
X116922931Y-62994800D01*
X116922931Y-62994800D02*
X116875312Y-63018609D01*
X116875312Y-63018609D02*
X116780074Y-63018609D01*
X117161027Y-62518609D02*
X117470551Y-62518609D01*
X117470551Y-62518609D02*
X117303884Y-62709085D01*
X117303884Y-62709085D02*
X117375313Y-62709085D01*
X117375313Y-62709085D02*
X117422932Y-62732895D01*
X117422932Y-62732895D02*
X117446741Y-62756704D01*
X117446741Y-62756704D02*
X117470551Y-62804323D01*
X117470551Y-62804323D02*
X117470551Y-62923371D01*
X117470551Y-62923371D02*
X117446741Y-62970990D01*
X117446741Y-62970990D02*
X117422932Y-62994800D01*
X117422932Y-62994800D02*
X117375313Y-63018609D01*
X117375313Y-63018609D02*
X117232456Y-63018609D01*
X117232456Y-63018609D02*
X117184837Y-62994800D01*
X117184837Y-62994800D02*
X117161027Y-62970990D01*
X118208645Y-63209085D02*
X118184836Y-63185276D01*
X118184836Y-63185276D02*
X118137217Y-63113847D01*
X118137217Y-63113847D02*
X118113407Y-63066228D01*
X118113407Y-63066228D02*
X118089598Y-62994800D01*
X118089598Y-62994800D02*
X118065788Y-62875752D01*
X118065788Y-62875752D02*
X118065788Y-62780514D01*
X118065788Y-62780514D02*
X118089598Y-62661466D01*
X118089598Y-62661466D02*
X118113407Y-62590038D01*
X118113407Y-62590038D02*
X118137217Y-62542419D01*
X118137217Y-62542419D02*
X118184836Y-62470990D01*
X118184836Y-62470990D02*
X118208645Y-62447180D01*
X118565788Y-62756704D02*
X118637216Y-62780514D01*
X118637216Y-62780514D02*
X118661026Y-62804323D01*
X118661026Y-62804323D02*
X118684835Y-62851942D01*
X118684835Y-62851942D02*
X118684835Y-62923371D01*
X118684835Y-62923371D02*
X118661026Y-62970990D01*
X118661026Y-62970990D02*
X118637216Y-62994800D01*
X118637216Y-62994800D02*
X118589597Y-63018609D01*
X118589597Y-63018609D02*
X118399121Y-63018609D01*
X118399121Y-63018609D02*
X118399121Y-62518609D01*
X118399121Y-62518609D02*
X118565788Y-62518609D01*
X118565788Y-62518609D02*
X118613407Y-62542419D01*
X118613407Y-62542419D02*
X118637216Y-62566228D01*
X118637216Y-62566228D02*
X118661026Y-62613847D01*
X118661026Y-62613847D02*
X118661026Y-62661466D01*
X118661026Y-62661466D02*
X118637216Y-62709085D01*
X118637216Y-62709085D02*
X118613407Y-62732895D01*
X118613407Y-62732895D02*
X118565788Y-62756704D01*
X118565788Y-62756704D02*
X118399121Y-62756704D01*
X119113407Y-63018609D02*
X119113407Y-62756704D01*
X119113407Y-62756704D02*
X119089597Y-62709085D01*
X119089597Y-62709085D02*
X119041978Y-62685276D01*
X119041978Y-62685276D02*
X118946740Y-62685276D01*
X118946740Y-62685276D02*
X118899121Y-62709085D01*
X119113407Y-62994800D02*
X119065788Y-63018609D01*
X119065788Y-63018609D02*
X118946740Y-63018609D01*
X118946740Y-63018609D02*
X118899121Y-62994800D01*
X118899121Y-62994800D02*
X118875312Y-62947180D01*
X118875312Y-62947180D02*
X118875312Y-62899561D01*
X118875312Y-62899561D02*
X118899121Y-62851942D01*
X118899121Y-62851942D02*
X118946740Y-62828133D01*
X118946740Y-62828133D02*
X119065788Y-62828133D01*
X119065788Y-62828133D02*
X119113407Y-62804323D01*
X119327693Y-62994800D02*
X119375312Y-63018609D01*
X119375312Y-63018609D02*
X119470550Y-63018609D01*
X119470550Y-63018609D02*
X119518169Y-62994800D01*
X119518169Y-62994800D02*
X119541978Y-62947180D01*
X119541978Y-62947180D02*
X119541978Y-62923371D01*
X119541978Y-62923371D02*
X119518169Y-62875752D01*
X119518169Y-62875752D02*
X119470550Y-62851942D01*
X119470550Y-62851942D02*
X119399121Y-62851942D01*
X119399121Y-62851942D02*
X119351502Y-62828133D01*
X119351502Y-62828133D02*
X119327693Y-62780514D01*
X119327693Y-62780514D02*
X119327693Y-62756704D01*
X119327693Y-62756704D02*
X119351502Y-62709085D01*
X119351502Y-62709085D02*
X119399121Y-62685276D01*
X119399121Y-62685276D02*
X119470550Y-62685276D01*
X119470550Y-62685276D02*
X119518169Y-62709085D01*
X119946740Y-62994800D02*
X119899121Y-63018609D01*
X119899121Y-63018609D02*
X119803883Y-63018609D01*
X119803883Y-63018609D02*
X119756264Y-62994800D01*
X119756264Y-62994800D02*
X119732455Y-62947180D01*
X119732455Y-62947180D02*
X119732455Y-62756704D01*
X119732455Y-62756704D02*
X119756264Y-62709085D01*
X119756264Y-62709085D02*
X119803883Y-62685276D01*
X119803883Y-62685276D02*
X119899121Y-62685276D01*
X119899121Y-62685276D02*
X119946740Y-62709085D01*
X119946740Y-62709085D02*
X119970550Y-62756704D01*
X119970550Y-62756704D02*
X119970550Y-62804323D01*
X119970550Y-62804323D02*
X119732455Y-62851942D01*
X120137216Y-63209085D02*
X120161026Y-63185276D01*
X120161026Y-63185276D02*
X120208645Y-63113847D01*
X120208645Y-63113847D02*
X120232454Y-63066228D01*
X120232454Y-63066228D02*
X120256264Y-62994800D01*
X120256264Y-62994800D02*
X120280073Y-62875752D01*
X120280073Y-62875752D02*
X120280073Y-62780514D01*
X120280073Y-62780514D02*
X120256264Y-62661466D01*
X120256264Y-62661466D02*
X120232454Y-62590038D01*
X120232454Y-62590038D02*
X120208645Y-62542419D01*
X120208645Y-62542419D02*
X120161026Y-62470990D01*
X120161026Y-62470990D02*
X120137216Y-62447180D01*
D11*
X147939378Y-98432309D02*
X147701283Y-98432309D01*
X147701283Y-98432309D02*
X147677474Y-98670404D01*
X147677474Y-98670404D02*
X147701283Y-98646595D01*
X147701283Y-98646595D02*
X147748902Y-98622785D01*
X147748902Y-98622785D02*
X147867950Y-98622785D01*
X147867950Y-98622785D02*
X147915569Y-98646595D01*
X147915569Y-98646595D02*
X147939378Y-98670404D01*
X147939378Y-98670404D02*
X147963188Y-98718023D01*
X147963188Y-98718023D02*
X147963188Y-98837071D01*
X147963188Y-98837071D02*
X147939378Y-98884690D01*
X147939378Y-98884690D02*
X147915569Y-98908500D01*
X147915569Y-98908500D02*
X147867950Y-98932309D01*
X147867950Y-98932309D02*
X147748902Y-98932309D01*
X147748902Y-98932309D02*
X147701283Y-98908500D01*
X147701283Y-98908500D02*
X147677474Y-98884690D01*
X148106045Y-98432309D02*
X148272711Y-98932309D01*
X148272711Y-98932309D02*
X148439378Y-98432309D01*
X147653664Y-90932309D02*
X147963188Y-90932309D01*
X147963188Y-90932309D02*
X147796521Y-91122785D01*
X147796521Y-91122785D02*
X147867950Y-91122785D01*
X147867950Y-91122785D02*
X147915569Y-91146595D01*
X147915569Y-91146595D02*
X147939378Y-91170404D01*
X147939378Y-91170404D02*
X147963188Y-91218023D01*
X147963188Y-91218023D02*
X147963188Y-91337071D01*
X147963188Y-91337071D02*
X147939378Y-91384690D01*
X147939378Y-91384690D02*
X147915569Y-91408500D01*
X147915569Y-91408500D02*
X147867950Y-91432309D01*
X147867950Y-91432309D02*
X147725093Y-91432309D01*
X147725093Y-91432309D02*
X147677474Y-91408500D01*
X147677474Y-91408500D02*
X147653664Y-91384690D01*
X148177473Y-91384690D02*
X148201283Y-91408500D01*
X148201283Y-91408500D02*
X148177473Y-91432309D01*
X148177473Y-91432309D02*
X148153664Y-91408500D01*
X148153664Y-91408500D02*
X148177473Y-91384690D01*
X148177473Y-91384690D02*
X148177473Y-91432309D01*
X148367949Y-90932309D02*
X148677473Y-90932309D01*
X148677473Y-90932309D02*
X148510806Y-91122785D01*
X148510806Y-91122785D02*
X148582235Y-91122785D01*
X148582235Y-91122785D02*
X148629854Y-91146595D01*
X148629854Y-91146595D02*
X148653663Y-91170404D01*
X148653663Y-91170404D02*
X148677473Y-91218023D01*
X148677473Y-91218023D02*
X148677473Y-91337071D01*
X148677473Y-91337071D02*
X148653663Y-91384690D01*
X148653663Y-91384690D02*
X148629854Y-91408500D01*
X148629854Y-91408500D02*
X148582235Y-91432309D01*
X148582235Y-91432309D02*
X148439378Y-91432309D01*
X148439378Y-91432309D02*
X148391759Y-91408500D01*
X148391759Y-91408500D02*
X148367949Y-91384690D01*
X148820330Y-90932309D02*
X148986996Y-91432309D01*
X148986996Y-91432309D02*
X149153663Y-90932309D01*
D10*
X49161027Y-54542587D02*
X49732455Y-54542587D01*
X49446741Y-55542587D02*
X49446741Y-54542587D01*
X50446741Y-55494968D02*
X50351503Y-55542587D01*
X50351503Y-55542587D02*
X50161027Y-55542587D01*
X50161027Y-55542587D02*
X50065789Y-55494968D01*
X50065789Y-55494968D02*
X50018170Y-55399729D01*
X50018170Y-55399729D02*
X50018170Y-55018777D01*
X50018170Y-55018777D02*
X50065789Y-54923539D01*
X50065789Y-54923539D02*
X50161027Y-54875920D01*
X50161027Y-54875920D02*
X50351503Y-54875920D01*
X50351503Y-54875920D02*
X50446741Y-54923539D01*
X50446741Y-54923539D02*
X50494360Y-55018777D01*
X50494360Y-55018777D02*
X50494360Y-55114015D01*
X50494360Y-55114015D02*
X50018170Y-55209253D01*
X51351503Y-55542587D02*
X51351503Y-55018777D01*
X51351503Y-55018777D02*
X51303884Y-54923539D01*
X51303884Y-54923539D02*
X51208646Y-54875920D01*
X51208646Y-54875920D02*
X51018170Y-54875920D01*
X51018170Y-54875920D02*
X50922932Y-54923539D01*
X51351503Y-55494968D02*
X51256265Y-55542587D01*
X51256265Y-55542587D02*
X51018170Y-55542587D01*
X51018170Y-55542587D02*
X50922932Y-55494968D01*
X50922932Y-55494968D02*
X50875313Y-55399729D01*
X50875313Y-55399729D02*
X50875313Y-55304491D01*
X50875313Y-55304491D02*
X50922932Y-55209253D01*
X50922932Y-55209253D02*
X51018170Y-55161634D01*
X51018170Y-55161634D02*
X51256265Y-55161634D01*
X51256265Y-55161634D02*
X51351503Y-55114015D01*
X51827694Y-55542587D02*
X51827694Y-54875920D01*
X51827694Y-54971158D02*
X51875313Y-54923539D01*
X51875313Y-54923539D02*
X51970551Y-54875920D01*
X51970551Y-54875920D02*
X52113408Y-54875920D01*
X52113408Y-54875920D02*
X52208646Y-54923539D01*
X52208646Y-54923539D02*
X52256265Y-55018777D01*
X52256265Y-55018777D02*
X52256265Y-55542587D01*
X52256265Y-55018777D02*
X52303884Y-54923539D01*
X52303884Y-54923539D02*
X52399122Y-54875920D01*
X52399122Y-54875920D02*
X52541979Y-54875920D01*
X52541979Y-54875920D02*
X52637218Y-54923539D01*
X52637218Y-54923539D02*
X52684837Y-55018777D01*
X52684837Y-55018777D02*
X52684837Y-55542587D01*
X54351503Y-54542587D02*
X54161027Y-54542587D01*
X54161027Y-54542587D02*
X54065789Y-54590206D01*
X54065789Y-54590206D02*
X54018170Y-54637825D01*
X54018170Y-54637825D02*
X53922932Y-54780682D01*
X53922932Y-54780682D02*
X53875313Y-54971158D01*
X53875313Y-54971158D02*
X53875313Y-55352110D01*
X53875313Y-55352110D02*
X53922932Y-55447348D01*
X53922932Y-55447348D02*
X53970551Y-55494968D01*
X53970551Y-55494968D02*
X54065789Y-55542587D01*
X54065789Y-55542587D02*
X54256265Y-55542587D01*
X54256265Y-55542587D02*
X54351503Y-55494968D01*
X54351503Y-55494968D02*
X54399122Y-55447348D01*
X54399122Y-55447348D02*
X54446741Y-55352110D01*
X54446741Y-55352110D02*
X54446741Y-55114015D01*
X54446741Y-55114015D02*
X54399122Y-55018777D01*
X54399122Y-55018777D02*
X54351503Y-54971158D01*
X54351503Y-54971158D02*
X54256265Y-54923539D01*
X54256265Y-54923539D02*
X54065789Y-54923539D01*
X54065789Y-54923539D02*
X53970551Y-54971158D01*
X53970551Y-54971158D02*
X53922932Y-55018777D01*
X53922932Y-55018777D02*
X53875313Y-55114015D01*
X49303884Y-56628721D02*
X49637217Y-56628721D01*
X49780074Y-57152531D02*
X49303884Y-57152531D01*
X49303884Y-57152531D02*
X49303884Y-56152531D01*
X49303884Y-56152531D02*
X49780074Y-56152531D01*
X50208646Y-57152531D02*
X50208646Y-56485864D01*
X50208646Y-56581102D02*
X50256265Y-56533483D01*
X50256265Y-56533483D02*
X50351503Y-56485864D01*
X50351503Y-56485864D02*
X50494360Y-56485864D01*
X50494360Y-56485864D02*
X50589598Y-56533483D01*
X50589598Y-56533483D02*
X50637217Y-56628721D01*
X50637217Y-56628721D02*
X50637217Y-57152531D01*
X50637217Y-56628721D02*
X50684836Y-56533483D01*
X50684836Y-56533483D02*
X50780074Y-56485864D01*
X50780074Y-56485864D02*
X50922931Y-56485864D01*
X50922931Y-56485864D02*
X51018170Y-56533483D01*
X51018170Y-56533483D02*
X51065789Y-56628721D01*
X51065789Y-56628721D02*
X51065789Y-57152531D01*
X51684836Y-57152531D02*
X51589598Y-57104912D01*
X51589598Y-57104912D02*
X51541979Y-57057292D01*
X51541979Y-57057292D02*
X51494360Y-56962054D01*
X51494360Y-56962054D02*
X51494360Y-56676340D01*
X51494360Y-56676340D02*
X51541979Y-56581102D01*
X51541979Y-56581102D02*
X51589598Y-56533483D01*
X51589598Y-56533483D02*
X51684836Y-56485864D01*
X51684836Y-56485864D02*
X51827693Y-56485864D01*
X51827693Y-56485864D02*
X51922931Y-56533483D01*
X51922931Y-56533483D02*
X51970550Y-56581102D01*
X51970550Y-56581102D02*
X52018169Y-56676340D01*
X52018169Y-56676340D02*
X52018169Y-56962054D01*
X52018169Y-56962054D02*
X51970550Y-57057292D01*
X51970550Y-57057292D02*
X51922931Y-57104912D01*
X51922931Y-57104912D02*
X51827693Y-57152531D01*
X51827693Y-57152531D02*
X51684836Y-57152531D01*
X52303884Y-56485864D02*
X52684836Y-56485864D01*
X52446741Y-56152531D02*
X52446741Y-57009673D01*
X52446741Y-57009673D02*
X52494360Y-57104912D01*
X52494360Y-57104912D02*
X52589598Y-57152531D01*
X52589598Y-57152531D02*
X52684836Y-57152531D01*
X53018170Y-57152531D02*
X53018170Y-56485864D01*
X53018170Y-56152531D02*
X52970551Y-56200150D01*
X52970551Y-56200150D02*
X53018170Y-56247769D01*
X53018170Y-56247769D02*
X53065789Y-56200150D01*
X53065789Y-56200150D02*
X53018170Y-56152531D01*
X53018170Y-56152531D02*
X53018170Y-56247769D01*
X53637217Y-57152531D02*
X53541979Y-57104912D01*
X53541979Y-57104912D02*
X53494360Y-57057292D01*
X53494360Y-57057292D02*
X53446741Y-56962054D01*
X53446741Y-56962054D02*
X53446741Y-56676340D01*
X53446741Y-56676340D02*
X53494360Y-56581102D01*
X53494360Y-56581102D02*
X53541979Y-56533483D01*
X53541979Y-56533483D02*
X53637217Y-56485864D01*
X53637217Y-56485864D02*
X53780074Y-56485864D01*
X53780074Y-56485864D02*
X53875312Y-56533483D01*
X53875312Y-56533483D02*
X53922931Y-56581102D01*
X53922931Y-56581102D02*
X53970550Y-56676340D01*
X53970550Y-56676340D02*
X53970550Y-56962054D01*
X53970550Y-56962054D02*
X53922931Y-57057292D01*
X53922931Y-57057292D02*
X53875312Y-57104912D01*
X53875312Y-57104912D02*
X53780074Y-57152531D01*
X53780074Y-57152531D02*
X53637217Y-57152531D01*
X54399122Y-56485864D02*
X54399122Y-57152531D01*
X54399122Y-56581102D02*
X54446741Y-56533483D01*
X54446741Y-56533483D02*
X54541979Y-56485864D01*
X54541979Y-56485864D02*
X54684836Y-56485864D01*
X54684836Y-56485864D02*
X54780074Y-56533483D01*
X54780074Y-56533483D02*
X54827693Y-56628721D01*
X54827693Y-56628721D02*
X54827693Y-57152531D01*
X55303884Y-56771578D02*
X56065789Y-56771578D01*
X56875312Y-56628721D02*
X57018169Y-56676340D01*
X57018169Y-56676340D02*
X57065788Y-56723959D01*
X57065788Y-56723959D02*
X57113407Y-56819197D01*
X57113407Y-56819197D02*
X57113407Y-56962054D01*
X57113407Y-56962054D02*
X57065788Y-57057292D01*
X57065788Y-57057292D02*
X57018169Y-57104912D01*
X57018169Y-57104912D02*
X56922931Y-57152531D01*
X56922931Y-57152531D02*
X56541979Y-57152531D01*
X56541979Y-57152531D02*
X56541979Y-56152531D01*
X56541979Y-56152531D02*
X56875312Y-56152531D01*
X56875312Y-56152531D02*
X56970550Y-56200150D01*
X56970550Y-56200150D02*
X57018169Y-56247769D01*
X57018169Y-56247769D02*
X57065788Y-56343007D01*
X57065788Y-56343007D02*
X57065788Y-56438245D01*
X57065788Y-56438245D02*
X57018169Y-56533483D01*
X57018169Y-56533483D02*
X56970550Y-56581102D01*
X56970550Y-56581102D02*
X56875312Y-56628721D01*
X56875312Y-56628721D02*
X56541979Y-56628721D01*
X57970550Y-57152531D02*
X57970550Y-56628721D01*
X57970550Y-56628721D02*
X57922931Y-56533483D01*
X57922931Y-56533483D02*
X57827693Y-56485864D01*
X57827693Y-56485864D02*
X57637217Y-56485864D01*
X57637217Y-56485864D02*
X57541979Y-56533483D01*
X57970550Y-57104912D02*
X57875312Y-57152531D01*
X57875312Y-57152531D02*
X57637217Y-57152531D01*
X57637217Y-57152531D02*
X57541979Y-57104912D01*
X57541979Y-57104912D02*
X57494360Y-57009673D01*
X57494360Y-57009673D02*
X57494360Y-56914435D01*
X57494360Y-56914435D02*
X57541979Y-56819197D01*
X57541979Y-56819197D02*
X57637217Y-56771578D01*
X57637217Y-56771578D02*
X57875312Y-56771578D01*
X57875312Y-56771578D02*
X57970550Y-56723959D01*
X58399122Y-57104912D02*
X58494360Y-57152531D01*
X58494360Y-57152531D02*
X58684836Y-57152531D01*
X58684836Y-57152531D02*
X58780074Y-57104912D01*
X58780074Y-57104912D02*
X58827693Y-57009673D01*
X58827693Y-57009673D02*
X58827693Y-56962054D01*
X58827693Y-56962054D02*
X58780074Y-56866816D01*
X58780074Y-56866816D02*
X58684836Y-56819197D01*
X58684836Y-56819197D02*
X58541979Y-56819197D01*
X58541979Y-56819197D02*
X58446741Y-56771578D01*
X58446741Y-56771578D02*
X58399122Y-56676340D01*
X58399122Y-56676340D02*
X58399122Y-56628721D01*
X58399122Y-56628721D02*
X58446741Y-56533483D01*
X58446741Y-56533483D02*
X58541979Y-56485864D01*
X58541979Y-56485864D02*
X58684836Y-56485864D01*
X58684836Y-56485864D02*
X58780074Y-56533483D01*
X59637217Y-57104912D02*
X59541979Y-57152531D01*
X59541979Y-57152531D02*
X59351503Y-57152531D01*
X59351503Y-57152531D02*
X59256265Y-57104912D01*
X59256265Y-57104912D02*
X59208646Y-57009673D01*
X59208646Y-57009673D02*
X59208646Y-56628721D01*
X59208646Y-56628721D02*
X59256265Y-56533483D01*
X59256265Y-56533483D02*
X59351503Y-56485864D01*
X59351503Y-56485864D02*
X59541979Y-56485864D01*
X59541979Y-56485864D02*
X59637217Y-56533483D01*
X59637217Y-56533483D02*
X59684836Y-56628721D01*
X59684836Y-56628721D02*
X59684836Y-56723959D01*
X59684836Y-56723959D02*
X59208646Y-56819197D01*
X60541979Y-57152531D02*
X60541979Y-56152531D01*
X60541979Y-57104912D02*
X60446741Y-57152531D01*
X60446741Y-57152531D02*
X60256265Y-57152531D01*
X60256265Y-57152531D02*
X60161027Y-57104912D01*
X60161027Y-57104912D02*
X60113408Y-57057292D01*
X60113408Y-57057292D02*
X60065789Y-56962054D01*
X60065789Y-56962054D02*
X60065789Y-56676340D01*
X60065789Y-56676340D02*
X60113408Y-56581102D01*
X60113408Y-56581102D02*
X60161027Y-56533483D01*
X60161027Y-56533483D02*
X60256265Y-56485864D01*
X60256265Y-56485864D02*
X60446741Y-56485864D01*
X60446741Y-56485864D02*
X60541979Y-56533483D01*
X61018170Y-56771578D02*
X61780075Y-56771578D01*
X62208646Y-57104912D02*
X62351503Y-57152531D01*
X62351503Y-57152531D02*
X62589598Y-57152531D01*
X62589598Y-57152531D02*
X62684836Y-57104912D01*
X62684836Y-57104912D02*
X62732455Y-57057292D01*
X62732455Y-57057292D02*
X62780074Y-56962054D01*
X62780074Y-56962054D02*
X62780074Y-56866816D01*
X62780074Y-56866816D02*
X62732455Y-56771578D01*
X62732455Y-56771578D02*
X62684836Y-56723959D01*
X62684836Y-56723959D02*
X62589598Y-56676340D01*
X62589598Y-56676340D02*
X62399122Y-56628721D01*
X62399122Y-56628721D02*
X62303884Y-56581102D01*
X62303884Y-56581102D02*
X62256265Y-56533483D01*
X62256265Y-56533483D02*
X62208646Y-56438245D01*
X62208646Y-56438245D02*
X62208646Y-56343007D01*
X62208646Y-56343007D02*
X62256265Y-56247769D01*
X62256265Y-56247769D02*
X62303884Y-56200150D01*
X62303884Y-56200150D02*
X62399122Y-56152531D01*
X62399122Y-56152531D02*
X62637217Y-56152531D01*
X62637217Y-56152531D02*
X62780074Y-56200150D01*
X63208646Y-57152531D02*
X63208646Y-56485864D01*
X63208646Y-56581102D02*
X63256265Y-56533483D01*
X63256265Y-56533483D02*
X63351503Y-56485864D01*
X63351503Y-56485864D02*
X63494360Y-56485864D01*
X63494360Y-56485864D02*
X63589598Y-56533483D01*
X63589598Y-56533483D02*
X63637217Y-56628721D01*
X63637217Y-56628721D02*
X63637217Y-57152531D01*
X63637217Y-56628721D02*
X63684836Y-56533483D01*
X63684836Y-56533483D02*
X63780074Y-56485864D01*
X63780074Y-56485864D02*
X63922931Y-56485864D01*
X63922931Y-56485864D02*
X64018170Y-56533483D01*
X64018170Y-56533483D02*
X64065789Y-56628721D01*
X64065789Y-56628721D02*
X64065789Y-57152531D01*
X64970550Y-57152531D02*
X64970550Y-56628721D01*
X64970550Y-56628721D02*
X64922931Y-56533483D01*
X64922931Y-56533483D02*
X64827693Y-56485864D01*
X64827693Y-56485864D02*
X64637217Y-56485864D01*
X64637217Y-56485864D02*
X64541979Y-56533483D01*
X64970550Y-57104912D02*
X64875312Y-57152531D01*
X64875312Y-57152531D02*
X64637217Y-57152531D01*
X64637217Y-57152531D02*
X64541979Y-57104912D01*
X64541979Y-57104912D02*
X64494360Y-57009673D01*
X64494360Y-57009673D02*
X64494360Y-56914435D01*
X64494360Y-56914435D02*
X64541979Y-56819197D01*
X64541979Y-56819197D02*
X64637217Y-56771578D01*
X64637217Y-56771578D02*
X64875312Y-56771578D01*
X64875312Y-56771578D02*
X64970550Y-56723959D01*
X65446741Y-57152531D02*
X65446741Y-56485864D01*
X65446741Y-56676340D02*
X65494360Y-56581102D01*
X65494360Y-56581102D02*
X65541979Y-56533483D01*
X65541979Y-56533483D02*
X65637217Y-56485864D01*
X65637217Y-56485864D02*
X65732455Y-56485864D01*
X65922932Y-56485864D02*
X66303884Y-56485864D01*
X66065789Y-56152531D02*
X66065789Y-57009673D01*
X66065789Y-57009673D02*
X66113408Y-57104912D01*
X66113408Y-57104912D02*
X66208646Y-57152531D01*
X66208646Y-57152531D02*
X66303884Y-57152531D01*
X66637218Y-56771578D02*
X67399123Y-56771578D01*
X67875313Y-57152531D02*
X67875313Y-56152531D01*
X67875313Y-56628721D02*
X68446741Y-56628721D01*
X68446741Y-57152531D02*
X68446741Y-56152531D01*
X69065789Y-57152531D02*
X68970551Y-57104912D01*
X68970551Y-57104912D02*
X68922932Y-57057292D01*
X68922932Y-57057292D02*
X68875313Y-56962054D01*
X68875313Y-56962054D02*
X68875313Y-56676340D01*
X68875313Y-56676340D02*
X68922932Y-56581102D01*
X68922932Y-56581102D02*
X68970551Y-56533483D01*
X68970551Y-56533483D02*
X69065789Y-56485864D01*
X69065789Y-56485864D02*
X69208646Y-56485864D01*
X69208646Y-56485864D02*
X69303884Y-56533483D01*
X69303884Y-56533483D02*
X69351503Y-56581102D01*
X69351503Y-56581102D02*
X69399122Y-56676340D01*
X69399122Y-56676340D02*
X69399122Y-56962054D01*
X69399122Y-56962054D02*
X69351503Y-57057292D01*
X69351503Y-57057292D02*
X69303884Y-57104912D01*
X69303884Y-57104912D02*
X69208646Y-57152531D01*
X69208646Y-57152531D02*
X69065789Y-57152531D01*
X69827694Y-57152531D02*
X69827694Y-56485864D01*
X69827694Y-56581102D02*
X69875313Y-56533483D01*
X69875313Y-56533483D02*
X69970551Y-56485864D01*
X69970551Y-56485864D02*
X70113408Y-56485864D01*
X70113408Y-56485864D02*
X70208646Y-56533483D01*
X70208646Y-56533483D02*
X70256265Y-56628721D01*
X70256265Y-56628721D02*
X70256265Y-57152531D01*
X70256265Y-56628721D02*
X70303884Y-56533483D01*
X70303884Y-56533483D02*
X70399122Y-56485864D01*
X70399122Y-56485864D02*
X70541979Y-56485864D01*
X70541979Y-56485864D02*
X70637218Y-56533483D01*
X70637218Y-56533483D02*
X70684837Y-56628721D01*
X70684837Y-56628721D02*
X70684837Y-57152531D01*
X71541979Y-57104912D02*
X71446741Y-57152531D01*
X71446741Y-57152531D02*
X71256265Y-57152531D01*
X71256265Y-57152531D02*
X71161027Y-57104912D01*
X71161027Y-57104912D02*
X71113408Y-57009673D01*
X71113408Y-57009673D02*
X71113408Y-56628721D01*
X71113408Y-56628721D02*
X71161027Y-56533483D01*
X71161027Y-56533483D02*
X71256265Y-56485864D01*
X71256265Y-56485864D02*
X71446741Y-56485864D01*
X71446741Y-56485864D02*
X71541979Y-56533483D01*
X71541979Y-56533483D02*
X71589598Y-56628721D01*
X71589598Y-56628721D02*
X71589598Y-56723959D01*
X71589598Y-56723959D02*
X71113408Y-56819197D01*
X72018170Y-56771578D02*
X72780075Y-56771578D01*
X73208646Y-57104912D02*
X73351503Y-57152531D01*
X73351503Y-57152531D02*
X73589598Y-57152531D01*
X73589598Y-57152531D02*
X73684836Y-57104912D01*
X73684836Y-57104912D02*
X73732455Y-57057292D01*
X73732455Y-57057292D02*
X73780074Y-56962054D01*
X73780074Y-56962054D02*
X73780074Y-56866816D01*
X73780074Y-56866816D02*
X73732455Y-56771578D01*
X73732455Y-56771578D02*
X73684836Y-56723959D01*
X73684836Y-56723959D02*
X73589598Y-56676340D01*
X73589598Y-56676340D02*
X73399122Y-56628721D01*
X73399122Y-56628721D02*
X73303884Y-56581102D01*
X73303884Y-56581102D02*
X73256265Y-56533483D01*
X73256265Y-56533483D02*
X73208646Y-56438245D01*
X73208646Y-56438245D02*
X73208646Y-56343007D01*
X73208646Y-56343007D02*
X73256265Y-56247769D01*
X73256265Y-56247769D02*
X73303884Y-56200150D01*
X73303884Y-56200150D02*
X73399122Y-56152531D01*
X73399122Y-56152531D02*
X73637217Y-56152531D01*
X73637217Y-56152531D02*
X73780074Y-56200150D01*
X74113408Y-56485864D02*
X74351503Y-57152531D01*
X74589598Y-56485864D02*
X74351503Y-57152531D01*
X74351503Y-57152531D02*
X74256265Y-57390626D01*
X74256265Y-57390626D02*
X74208646Y-57438245D01*
X74208646Y-57438245D02*
X74113408Y-57485864D01*
X74922932Y-57104912D02*
X75018170Y-57152531D01*
X75018170Y-57152531D02*
X75208646Y-57152531D01*
X75208646Y-57152531D02*
X75303884Y-57104912D01*
X75303884Y-57104912D02*
X75351503Y-57009673D01*
X75351503Y-57009673D02*
X75351503Y-56962054D01*
X75351503Y-56962054D02*
X75303884Y-56866816D01*
X75303884Y-56866816D02*
X75208646Y-56819197D01*
X75208646Y-56819197D02*
X75065789Y-56819197D01*
X75065789Y-56819197D02*
X74970551Y-56771578D01*
X74970551Y-56771578D02*
X74922932Y-56676340D01*
X74922932Y-56676340D02*
X74922932Y-56628721D01*
X74922932Y-56628721D02*
X74970551Y-56533483D01*
X74970551Y-56533483D02*
X75065789Y-56485864D01*
X75065789Y-56485864D02*
X75208646Y-56485864D01*
X75208646Y-56485864D02*
X75303884Y-56533483D01*
X75637218Y-56485864D02*
X76018170Y-56485864D01*
X75780075Y-56152531D02*
X75780075Y-57009673D01*
X75780075Y-57009673D02*
X75827694Y-57104912D01*
X75827694Y-57104912D02*
X75922932Y-57152531D01*
X75922932Y-57152531D02*
X76018170Y-57152531D01*
X76732456Y-57104912D02*
X76637218Y-57152531D01*
X76637218Y-57152531D02*
X76446742Y-57152531D01*
X76446742Y-57152531D02*
X76351504Y-57104912D01*
X76351504Y-57104912D02*
X76303885Y-57009673D01*
X76303885Y-57009673D02*
X76303885Y-56628721D01*
X76303885Y-56628721D02*
X76351504Y-56533483D01*
X76351504Y-56533483D02*
X76446742Y-56485864D01*
X76446742Y-56485864D02*
X76637218Y-56485864D01*
X76637218Y-56485864D02*
X76732456Y-56533483D01*
X76732456Y-56533483D02*
X76780075Y-56628721D01*
X76780075Y-56628721D02*
X76780075Y-56723959D01*
X76780075Y-56723959D02*
X76303885Y-56819197D01*
X77208647Y-57152531D02*
X77208647Y-56485864D01*
X77208647Y-56581102D02*
X77256266Y-56533483D01*
X77256266Y-56533483D02*
X77351504Y-56485864D01*
X77351504Y-56485864D02*
X77494361Y-56485864D01*
X77494361Y-56485864D02*
X77589599Y-56533483D01*
X77589599Y-56533483D02*
X77637218Y-56628721D01*
X77637218Y-56628721D02*
X77637218Y-57152531D01*
X77637218Y-56628721D02*
X77684837Y-56533483D01*
X77684837Y-56533483D02*
X77780075Y-56485864D01*
X77780075Y-56485864D02*
X77922932Y-56485864D01*
X77922932Y-56485864D02*
X78018171Y-56533483D01*
X78018171Y-56533483D02*
X78065790Y-56628721D01*
X78065790Y-56628721D02*
X78065790Y-57152531D01*
X49875312Y-58762475D02*
X49541979Y-58286284D01*
X49303884Y-58762475D02*
X49303884Y-57762475D01*
X49303884Y-57762475D02*
X49684836Y-57762475D01*
X49684836Y-57762475D02*
X49780074Y-57810094D01*
X49780074Y-57810094D02*
X49827693Y-57857713D01*
X49827693Y-57857713D02*
X49875312Y-57952951D01*
X49875312Y-57952951D02*
X49875312Y-58095808D01*
X49875312Y-58095808D02*
X49827693Y-58191046D01*
X49827693Y-58191046D02*
X49780074Y-58238665D01*
X49780074Y-58238665D02*
X49684836Y-58286284D01*
X49684836Y-58286284D02*
X49303884Y-58286284D01*
X50684836Y-58714856D02*
X50589598Y-58762475D01*
X50589598Y-58762475D02*
X50399122Y-58762475D01*
X50399122Y-58762475D02*
X50303884Y-58714856D01*
X50303884Y-58714856D02*
X50256265Y-58619617D01*
X50256265Y-58619617D02*
X50256265Y-58238665D01*
X50256265Y-58238665D02*
X50303884Y-58143427D01*
X50303884Y-58143427D02*
X50399122Y-58095808D01*
X50399122Y-58095808D02*
X50589598Y-58095808D01*
X50589598Y-58095808D02*
X50684836Y-58143427D01*
X50684836Y-58143427D02*
X50732455Y-58238665D01*
X50732455Y-58238665D02*
X50732455Y-58333903D01*
X50732455Y-58333903D02*
X50256265Y-58429141D01*
X51065789Y-58095808D02*
X51303884Y-58762475D01*
X51303884Y-58762475D02*
X51541979Y-58095808D01*
X51922932Y-58667236D02*
X51970551Y-58714856D01*
X51970551Y-58714856D02*
X51922932Y-58762475D01*
X51922932Y-58762475D02*
X51875313Y-58714856D01*
X51875313Y-58714856D02*
X51922932Y-58667236D01*
X51922932Y-58667236D02*
X51922932Y-58762475D01*
X53589598Y-58095808D02*
X53589598Y-58762475D01*
X53351503Y-57714856D02*
X53113408Y-58429141D01*
X53113408Y-58429141D02*
X53732455Y-58429141D01*
X49827693Y-60372419D02*
X49256265Y-60372419D01*
X49541979Y-60372419D02*
X49541979Y-59372419D01*
X49541979Y-59372419D02*
X49446741Y-59515276D01*
X49446741Y-59515276D02*
X49351503Y-59610514D01*
X49351503Y-59610514D02*
X49256265Y-59658133D01*
X50780074Y-60372419D02*
X50208646Y-60372419D01*
X50494360Y-60372419D02*
X50494360Y-59372419D01*
X50494360Y-59372419D02*
X50399122Y-59515276D01*
X50399122Y-59515276D02*
X50303884Y-59610514D01*
X50303884Y-59610514D02*
X50208646Y-59658133D01*
X51922931Y-59324800D02*
X51065789Y-60610514D01*
X52208646Y-59467657D02*
X52256265Y-59420038D01*
X52256265Y-59420038D02*
X52351503Y-59372419D01*
X52351503Y-59372419D02*
X52589598Y-59372419D01*
X52589598Y-59372419D02*
X52684836Y-59420038D01*
X52684836Y-59420038D02*
X52732455Y-59467657D01*
X52732455Y-59467657D02*
X52780074Y-59562895D01*
X52780074Y-59562895D02*
X52780074Y-59658133D01*
X52780074Y-59658133D02*
X52732455Y-59800990D01*
X52732455Y-59800990D02*
X52161027Y-60372419D01*
X52161027Y-60372419D02*
X52780074Y-60372419D01*
X53399122Y-59372419D02*
X53494360Y-59372419D01*
X53494360Y-59372419D02*
X53589598Y-59420038D01*
X53589598Y-59420038D02*
X53637217Y-59467657D01*
X53637217Y-59467657D02*
X53684836Y-59562895D01*
X53684836Y-59562895D02*
X53732455Y-59753371D01*
X53732455Y-59753371D02*
X53732455Y-59991466D01*
X53732455Y-59991466D02*
X53684836Y-60181942D01*
X53684836Y-60181942D02*
X53637217Y-60277180D01*
X53637217Y-60277180D02*
X53589598Y-60324800D01*
X53589598Y-60324800D02*
X53494360Y-60372419D01*
X53494360Y-60372419D02*
X53399122Y-60372419D01*
X53399122Y-60372419D02*
X53303884Y-60324800D01*
X53303884Y-60324800D02*
X53256265Y-60277180D01*
X53256265Y-60277180D02*
X53208646Y-60181942D01*
X53208646Y-60181942D02*
X53161027Y-59991466D01*
X53161027Y-59991466D02*
X53161027Y-59753371D01*
X53161027Y-59753371D02*
X53208646Y-59562895D01*
X53208646Y-59562895D02*
X53256265Y-59467657D01*
X53256265Y-59467657D02*
X53303884Y-59420038D01*
X53303884Y-59420038D02*
X53399122Y-59372419D01*
X54875312Y-59324800D02*
X54018170Y-60610514D01*
X55161027Y-59467657D02*
X55208646Y-59420038D01*
X55208646Y-59420038D02*
X55303884Y-59372419D01*
X55303884Y-59372419D02*
X55541979Y-59372419D01*
X55541979Y-59372419D02*
X55637217Y-59420038D01*
X55637217Y-59420038D02*
X55684836Y-59467657D01*
X55684836Y-59467657D02*
X55732455Y-59562895D01*
X55732455Y-59562895D02*
X55732455Y-59658133D01*
X55732455Y-59658133D02*
X55684836Y-59800990D01*
X55684836Y-59800990D02*
X55113408Y-60372419D01*
X55113408Y-60372419D02*
X55732455Y-60372419D01*
X56351503Y-59372419D02*
X56446741Y-59372419D01*
X56446741Y-59372419D02*
X56541979Y-59420038D01*
X56541979Y-59420038D02*
X56589598Y-59467657D01*
X56589598Y-59467657D02*
X56637217Y-59562895D01*
X56637217Y-59562895D02*
X56684836Y-59753371D01*
X56684836Y-59753371D02*
X56684836Y-59991466D01*
X56684836Y-59991466D02*
X56637217Y-60181942D01*
X56637217Y-60181942D02*
X56589598Y-60277180D01*
X56589598Y-60277180D02*
X56541979Y-60324800D01*
X56541979Y-60324800D02*
X56446741Y-60372419D01*
X56446741Y-60372419D02*
X56351503Y-60372419D01*
X56351503Y-60372419D02*
X56256265Y-60324800D01*
X56256265Y-60324800D02*
X56208646Y-60277180D01*
X56208646Y-60277180D02*
X56161027Y-60181942D01*
X56161027Y-60181942D02*
X56113408Y-59991466D01*
X56113408Y-59991466D02*
X56113408Y-59753371D01*
X56113408Y-59753371D02*
X56161027Y-59562895D01*
X56161027Y-59562895D02*
X56208646Y-59467657D01*
X56208646Y-59467657D02*
X56256265Y-59420038D01*
X56256265Y-59420038D02*
X56351503Y-59372419D01*
X57065789Y-59467657D02*
X57113408Y-59420038D01*
X57113408Y-59420038D02*
X57208646Y-59372419D01*
X57208646Y-59372419D02*
X57446741Y-59372419D01*
X57446741Y-59372419D02*
X57541979Y-59420038D01*
X57541979Y-59420038D02*
X57589598Y-59467657D01*
X57589598Y-59467657D02*
X57637217Y-59562895D01*
X57637217Y-59562895D02*
X57637217Y-59658133D01*
X57637217Y-59658133D02*
X57589598Y-59800990D01*
X57589598Y-59800990D02*
X57018170Y-60372419D01*
X57018170Y-60372419D02*
X57637217Y-60372419D01*
X58494360Y-59705752D02*
X58494360Y-60372419D01*
X58256265Y-59324800D02*
X58018170Y-60039085D01*
X58018170Y-60039085D02*
X58637217Y-60039085D01*
D12*
X42666666Y-91954819D02*
X42333333Y-91478628D01*
X42095238Y-91954819D02*
X42095238Y-90954819D01*
X42095238Y-90954819D02*
X42476190Y-90954819D01*
X42476190Y-90954819D02*
X42571428Y-91002438D01*
X42571428Y-91002438D02*
X42619047Y-91050057D01*
X42619047Y-91050057D02*
X42666666Y-91145295D01*
X42666666Y-91145295D02*
X42666666Y-91288152D01*
X42666666Y-91288152D02*
X42619047Y-91383390D01*
X42619047Y-91383390D02*
X42571428Y-91431009D01*
X42571428Y-91431009D02*
X42476190Y-91478628D01*
X42476190Y-91478628D02*
X42095238Y-91478628D01*
X43095238Y-91431009D02*
X43428571Y-91431009D01*
X43571428Y-91954819D02*
X43095238Y-91954819D01*
X43095238Y-91954819D02*
X43095238Y-90954819D01*
X43095238Y-90954819D02*
X43571428Y-90954819D01*
X44333333Y-91431009D02*
X44000000Y-91431009D01*
X44000000Y-91954819D02*
X44000000Y-90954819D01*
X44000000Y-90954819D02*
X44476190Y-90954819D01*
X45000000Y-90954819D02*
X45000000Y-91192914D01*
X44761905Y-91097676D02*
X45000000Y-91192914D01*
X45000000Y-91192914D02*
X45238095Y-91097676D01*
X44857143Y-91383390D02*
X45000000Y-91192914D01*
X45000000Y-91192914D02*
X45142857Y-91383390D01*
X45761905Y-90954819D02*
X45761905Y-91192914D01*
X45523810Y-91097676D02*
X45761905Y-91192914D01*
X45761905Y-91192914D02*
X46000000Y-91097676D01*
X45619048Y-91383390D02*
X45761905Y-91192914D01*
X45761905Y-91192914D02*
X45904762Y-91383390D01*
X42666666Y-51954819D02*
X42333333Y-51478628D01*
X42095238Y-51954819D02*
X42095238Y-50954819D01*
X42095238Y-50954819D02*
X42476190Y-50954819D01*
X42476190Y-50954819D02*
X42571428Y-51002438D01*
X42571428Y-51002438D02*
X42619047Y-51050057D01*
X42619047Y-51050057D02*
X42666666Y-51145295D01*
X42666666Y-51145295D02*
X42666666Y-51288152D01*
X42666666Y-51288152D02*
X42619047Y-51383390D01*
X42619047Y-51383390D02*
X42571428Y-51431009D01*
X42571428Y-51431009D02*
X42476190Y-51478628D01*
X42476190Y-51478628D02*
X42095238Y-51478628D01*
X43095238Y-51431009D02*
X43428571Y-51431009D01*
X43571428Y-51954819D02*
X43095238Y-51954819D01*
X43095238Y-51954819D02*
X43095238Y-50954819D01*
X43095238Y-50954819D02*
X43571428Y-50954819D01*
X44333333Y-51431009D02*
X44000000Y-51431009D01*
X44000000Y-51954819D02*
X44000000Y-50954819D01*
X44000000Y-50954819D02*
X44476190Y-50954819D01*
X45000000Y-50954819D02*
X45000000Y-51192914D01*
X44761905Y-51097676D02*
X45000000Y-51192914D01*
X45000000Y-51192914D02*
X45238095Y-51097676D01*
X44857143Y-51383390D02*
X45000000Y-51192914D01*
X45000000Y-51192914D02*
X45142857Y-51383390D01*
X45761905Y-50954819D02*
X45761905Y-51192914D01*
X45523810Y-51097676D02*
X45761905Y-51192914D01*
X45761905Y-51192914D02*
X46000000Y-51097676D01*
X45619048Y-51383390D02*
X45761905Y-51192914D01*
X45761905Y-51192914D02*
X45904762Y-51383390D01*
X149238095Y-66006819D02*
X149809523Y-66006819D01*
X149523809Y-67006819D02*
X149523809Y-66006819D01*
X150142857Y-67006819D02*
X150142857Y-66006819D01*
X150142857Y-66006819D02*
X150523809Y-66006819D01*
X150523809Y-66006819D02*
X150619047Y-66054438D01*
X150619047Y-66054438D02*
X150666666Y-66102057D01*
X150666666Y-66102057D02*
X150714285Y-66197295D01*
X150714285Y-66197295D02*
X150714285Y-66340152D01*
X150714285Y-66340152D02*
X150666666Y-66435390D01*
X150666666Y-66435390D02*
X150619047Y-66483009D01*
X150619047Y-66483009D02*
X150523809Y-66530628D01*
X150523809Y-66530628D02*
X150142857Y-66530628D01*
X151666666Y-67006819D02*
X151095238Y-67006819D01*
X151380952Y-67006819D02*
X151380952Y-66006819D01*
X151380952Y-66006819D02*
X151285714Y-66149676D01*
X151285714Y-66149676D02*
X151190476Y-66244914D01*
X151190476Y-66244914D02*
X151095238Y-66292533D01*
X116238095Y-72006819D02*
X116809523Y-72006819D01*
X116523809Y-73006819D02*
X116523809Y-72006819D01*
X117142857Y-73006819D02*
X117142857Y-72006819D01*
X117142857Y-72006819D02*
X117523809Y-72006819D01*
X117523809Y-72006819D02*
X117619047Y-72054438D01*
X117619047Y-72054438D02*
X117666666Y-72102057D01*
X117666666Y-72102057D02*
X117714285Y-72197295D01*
X117714285Y-72197295D02*
X117714285Y-72340152D01*
X117714285Y-72340152D02*
X117666666Y-72435390D01*
X117666666Y-72435390D02*
X117619047Y-72483009D01*
X117619047Y-72483009D02*
X117523809Y-72530628D01*
X117523809Y-72530628D02*
X117142857Y-72530628D01*
X118571428Y-72340152D02*
X118571428Y-73006819D01*
X118333333Y-71959200D02*
X118095238Y-72673485D01*
X118095238Y-72673485D02*
X118714285Y-72673485D01*
X111050057Y-71595238D02*
X111002438Y-71690476D01*
X111002438Y-71690476D02*
X110907200Y-71785714D01*
X110907200Y-71785714D02*
X110764342Y-71928571D01*
X110764342Y-71928571D02*
X110716723Y-72023809D01*
X110716723Y-72023809D02*
X110716723Y-72119047D01*
X110954819Y-72071428D02*
X110907200Y-72166666D01*
X110907200Y-72166666D02*
X110811961Y-72261904D01*
X110811961Y-72261904D02*
X110621485Y-72309523D01*
X110621485Y-72309523D02*
X110288152Y-72309523D01*
X110288152Y-72309523D02*
X110097676Y-72261904D01*
X110097676Y-72261904D02*
X110002438Y-72166666D01*
X110002438Y-72166666D02*
X109954819Y-72071428D01*
X109954819Y-72071428D02*
X109954819Y-71880952D01*
X109954819Y-71880952D02*
X110002438Y-71785714D01*
X110002438Y-71785714D02*
X110097676Y-71690476D01*
X110097676Y-71690476D02*
X110288152Y-71642857D01*
X110288152Y-71642857D02*
X110621485Y-71642857D01*
X110621485Y-71642857D02*
X110811961Y-71690476D01*
X110811961Y-71690476D02*
X110907200Y-71785714D01*
X110907200Y-71785714D02*
X110954819Y-71880952D01*
X110954819Y-71880952D02*
X110954819Y-72071428D01*
X110954819Y-70690476D02*
X110954819Y-71261904D01*
X110954819Y-70976190D02*
X109954819Y-70976190D01*
X109954819Y-70976190D02*
X110097676Y-71071428D01*
X110097676Y-71071428D02*
X110192914Y-71166666D01*
X110192914Y-71166666D02*
X110240533Y-71261904D01*
X110133619Y-76706999D02*
X110371714Y-76706999D01*
X110276476Y-76945094D02*
X110371714Y-76706999D01*
X110371714Y-76706999D02*
X110276476Y-76468904D01*
X110562190Y-76849856D02*
X110371714Y-76706999D01*
X110371714Y-76706999D02*
X110562190Y-76564142D01*
X110133619Y-76706999D02*
X110371714Y-76706999D01*
X110276476Y-76945094D02*
X110371714Y-76706999D01*
X110371714Y-76706999D02*
X110276476Y-76468904D01*
X110562190Y-76849856D02*
X110371714Y-76706999D01*
X110371714Y-76706999D02*
X110562190Y-76564142D01*
X64261905Y-67954819D02*
X64261905Y-66954819D01*
X64261905Y-66954819D02*
X64500000Y-66954819D01*
X64500000Y-66954819D02*
X64642857Y-67002438D01*
X64642857Y-67002438D02*
X64738095Y-67097676D01*
X64738095Y-67097676D02*
X64785714Y-67192914D01*
X64785714Y-67192914D02*
X64833333Y-67383390D01*
X64833333Y-67383390D02*
X64833333Y-67526247D01*
X64833333Y-67526247D02*
X64785714Y-67716723D01*
X64785714Y-67716723D02*
X64738095Y-67811961D01*
X64738095Y-67811961D02*
X64642857Y-67907200D01*
X64642857Y-67907200D02*
X64500000Y-67954819D01*
X64500000Y-67954819D02*
X64261905Y-67954819D01*
X65214286Y-67050057D02*
X65261905Y-67002438D01*
X65261905Y-67002438D02*
X65357143Y-66954819D01*
X65357143Y-66954819D02*
X65595238Y-66954819D01*
X65595238Y-66954819D02*
X65690476Y-67002438D01*
X65690476Y-67002438D02*
X65738095Y-67050057D01*
X65738095Y-67050057D02*
X65785714Y-67145295D01*
X65785714Y-67145295D02*
X65785714Y-67240533D01*
X65785714Y-67240533D02*
X65738095Y-67383390D01*
X65738095Y-67383390D02*
X65166667Y-67954819D01*
X65166667Y-67954819D02*
X65785714Y-67954819D01*
X88985433Y-61651319D02*
X88652100Y-61175128D01*
X88414005Y-61651319D02*
X88414005Y-60651319D01*
X88414005Y-60651319D02*
X88794957Y-60651319D01*
X88794957Y-60651319D02*
X88890195Y-60698938D01*
X88890195Y-60698938D02*
X88937814Y-60746557D01*
X88937814Y-60746557D02*
X88985433Y-60841795D01*
X88985433Y-60841795D02*
X88985433Y-60984652D01*
X88985433Y-60984652D02*
X88937814Y-61079890D01*
X88937814Y-61079890D02*
X88890195Y-61127509D01*
X88890195Y-61127509D02*
X88794957Y-61175128D01*
X88794957Y-61175128D02*
X88414005Y-61175128D01*
X89937814Y-61651319D02*
X89366386Y-61651319D01*
X89652100Y-61651319D02*
X89652100Y-60651319D01*
X89652100Y-60651319D02*
X89556862Y-60794176D01*
X89556862Y-60794176D02*
X89461624Y-60889414D01*
X89461624Y-60889414D02*
X89366386Y-60937033D01*
X111050057Y-83595238D02*
X111002438Y-83690476D01*
X111002438Y-83690476D02*
X110907200Y-83785714D01*
X110907200Y-83785714D02*
X110764342Y-83928571D01*
X110764342Y-83928571D02*
X110716723Y-84023809D01*
X110716723Y-84023809D02*
X110716723Y-84119047D01*
X110954819Y-84071428D02*
X110907200Y-84166666D01*
X110907200Y-84166666D02*
X110811961Y-84261904D01*
X110811961Y-84261904D02*
X110621485Y-84309523D01*
X110621485Y-84309523D02*
X110288152Y-84309523D01*
X110288152Y-84309523D02*
X110097676Y-84261904D01*
X110097676Y-84261904D02*
X110002438Y-84166666D01*
X110002438Y-84166666D02*
X109954819Y-84071428D01*
X109954819Y-84071428D02*
X109954819Y-83880952D01*
X109954819Y-83880952D02*
X110002438Y-83785714D01*
X110002438Y-83785714D02*
X110097676Y-83690476D01*
X110097676Y-83690476D02*
X110288152Y-83642857D01*
X110288152Y-83642857D02*
X110621485Y-83642857D01*
X110621485Y-83642857D02*
X110811961Y-83690476D01*
X110811961Y-83690476D02*
X110907200Y-83785714D01*
X110907200Y-83785714D02*
X110954819Y-83880952D01*
X110954819Y-83880952D02*
X110954819Y-84071428D01*
X110050057Y-83261904D02*
X110002438Y-83214285D01*
X110002438Y-83214285D02*
X109954819Y-83119047D01*
X109954819Y-83119047D02*
X109954819Y-82880952D01*
X109954819Y-82880952D02*
X110002438Y-82785714D01*
X110002438Y-82785714D02*
X110050057Y-82738095D01*
X110050057Y-82738095D02*
X110145295Y-82690476D01*
X110145295Y-82690476D02*
X110240533Y-82690476D01*
X110240533Y-82690476D02*
X110383390Y-82738095D01*
X110383390Y-82738095D02*
X110954819Y-83309523D01*
X110954819Y-83309523D02*
X110954819Y-82690476D01*
X109454819Y-87999999D02*
X109692914Y-87999999D01*
X109597676Y-88238094D02*
X109692914Y-87999999D01*
X109692914Y-87999999D02*
X109597676Y-87761904D01*
X109883390Y-88142856D02*
X109692914Y-87999999D01*
X109692914Y-87999999D02*
X109883390Y-87857142D01*
X109454819Y-87999999D02*
X109692914Y-87999999D01*
X109597676Y-88238094D02*
X109692914Y-87999999D01*
X109692914Y-87999999D02*
X109597676Y-87761904D01*
X109883390Y-88142856D02*
X109692914Y-87999999D01*
X109692914Y-87999999D02*
X109883390Y-87857142D01*
X127293333Y-67374819D02*
X126960000Y-66898628D01*
X126721905Y-67374819D02*
X126721905Y-66374819D01*
X126721905Y-66374819D02*
X127102857Y-66374819D01*
X127102857Y-66374819D02*
X127198095Y-66422438D01*
X127198095Y-66422438D02*
X127245714Y-66470057D01*
X127245714Y-66470057D02*
X127293333Y-66565295D01*
X127293333Y-66565295D02*
X127293333Y-66708152D01*
X127293333Y-66708152D02*
X127245714Y-66803390D01*
X127245714Y-66803390D02*
X127198095Y-66851009D01*
X127198095Y-66851009D02*
X127102857Y-66898628D01*
X127102857Y-66898628D02*
X126721905Y-66898628D01*
X128198095Y-66374819D02*
X127721905Y-66374819D01*
X127721905Y-66374819D02*
X127674286Y-66851009D01*
X127674286Y-66851009D02*
X127721905Y-66803390D01*
X127721905Y-66803390D02*
X127817143Y-66755771D01*
X127817143Y-66755771D02*
X128055238Y-66755771D01*
X128055238Y-66755771D02*
X128150476Y-66803390D01*
X128150476Y-66803390D02*
X128198095Y-66851009D01*
X128198095Y-66851009D02*
X128245714Y-66946247D01*
X128245714Y-66946247D02*
X128245714Y-67184342D01*
X128245714Y-67184342D02*
X128198095Y-67279580D01*
X128198095Y-67279580D02*
X128150476Y-67327200D01*
X128150476Y-67327200D02*
X128055238Y-67374819D01*
X128055238Y-67374819D02*
X127817143Y-67374819D01*
X127817143Y-67374819D02*
X127721905Y-67327200D01*
X127721905Y-67327200D02*
X127674286Y-67279580D01*
X54261905Y-67954819D02*
X54261905Y-66954819D01*
X54261905Y-66954819D02*
X54500000Y-66954819D01*
X54500000Y-66954819D02*
X54642857Y-67002438D01*
X54642857Y-67002438D02*
X54738095Y-67097676D01*
X54738095Y-67097676D02*
X54785714Y-67192914D01*
X54785714Y-67192914D02*
X54833333Y-67383390D01*
X54833333Y-67383390D02*
X54833333Y-67526247D01*
X54833333Y-67526247D02*
X54785714Y-67716723D01*
X54785714Y-67716723D02*
X54738095Y-67811961D01*
X54738095Y-67811961D02*
X54642857Y-67907200D01*
X54642857Y-67907200D02*
X54500000Y-67954819D01*
X54500000Y-67954819D02*
X54261905Y-67954819D01*
X55690476Y-67288152D02*
X55690476Y-67954819D01*
X55452381Y-66907200D02*
X55214286Y-67621485D01*
X55214286Y-67621485D02*
X55833333Y-67621485D01*
X90238095Y-83006819D02*
X90809523Y-83006819D01*
X90523809Y-84006819D02*
X90523809Y-83006819D01*
X91142857Y-84006819D02*
X91142857Y-83006819D01*
X91142857Y-83006819D02*
X91523809Y-83006819D01*
X91523809Y-83006819D02*
X91619047Y-83054438D01*
X91619047Y-83054438D02*
X91666666Y-83102057D01*
X91666666Y-83102057D02*
X91714285Y-83197295D01*
X91714285Y-83197295D02*
X91714285Y-83340152D01*
X91714285Y-83340152D02*
X91666666Y-83435390D01*
X91666666Y-83435390D02*
X91619047Y-83483009D01*
X91619047Y-83483009D02*
X91523809Y-83530628D01*
X91523809Y-83530628D02*
X91142857Y-83530628D01*
X92047619Y-83006819D02*
X92714285Y-83006819D01*
X92714285Y-83006819D02*
X92285714Y-84006819D01*
X88825433Y-77651319D02*
X88492100Y-77175128D01*
X88254005Y-77651319D02*
X88254005Y-76651319D01*
X88254005Y-76651319D02*
X88634957Y-76651319D01*
X88634957Y-76651319D02*
X88730195Y-76698938D01*
X88730195Y-76698938D02*
X88777814Y-76746557D01*
X88777814Y-76746557D02*
X88825433Y-76841795D01*
X88825433Y-76841795D02*
X88825433Y-76984652D01*
X88825433Y-76984652D02*
X88777814Y-77079890D01*
X88777814Y-77079890D02*
X88730195Y-77127509D01*
X88730195Y-77127509D02*
X88634957Y-77175128D01*
X88634957Y-77175128D02*
X88254005Y-77175128D01*
X89206386Y-76746557D02*
X89254005Y-76698938D01*
X89254005Y-76698938D02*
X89349243Y-76651319D01*
X89349243Y-76651319D02*
X89587338Y-76651319D01*
X89587338Y-76651319D02*
X89682576Y-76698938D01*
X89682576Y-76698938D02*
X89730195Y-76746557D01*
X89730195Y-76746557D02*
X89777814Y-76841795D01*
X89777814Y-76841795D02*
X89777814Y-76937033D01*
X89777814Y-76937033D02*
X89730195Y-77079890D01*
X89730195Y-77079890D02*
X89158767Y-77651319D01*
X89158767Y-77651319D02*
X89777814Y-77651319D01*
X127293333Y-83374819D02*
X126960000Y-82898628D01*
X126721905Y-83374819D02*
X126721905Y-82374819D01*
X126721905Y-82374819D02*
X127102857Y-82374819D01*
X127102857Y-82374819D02*
X127198095Y-82422438D01*
X127198095Y-82422438D02*
X127245714Y-82470057D01*
X127245714Y-82470057D02*
X127293333Y-82565295D01*
X127293333Y-82565295D02*
X127293333Y-82708152D01*
X127293333Y-82708152D02*
X127245714Y-82803390D01*
X127245714Y-82803390D02*
X127198095Y-82851009D01*
X127198095Y-82851009D02*
X127102857Y-82898628D01*
X127102857Y-82898628D02*
X126721905Y-82898628D01*
X128150476Y-82708152D02*
X128150476Y-83374819D01*
X127912381Y-82327200D02*
X127674286Y-83041485D01*
X127674286Y-83041485D02*
X128293333Y-83041485D01*
X140738095Y-82006819D02*
X141309523Y-82006819D01*
X141023809Y-83006819D02*
X141023809Y-82006819D01*
X141642857Y-83006819D02*
X141642857Y-82006819D01*
X141642857Y-82006819D02*
X142023809Y-82006819D01*
X142023809Y-82006819D02*
X142119047Y-82054438D01*
X142119047Y-82054438D02*
X142166666Y-82102057D01*
X142166666Y-82102057D02*
X142214285Y-82197295D01*
X142214285Y-82197295D02*
X142214285Y-82340152D01*
X142214285Y-82340152D02*
X142166666Y-82435390D01*
X142166666Y-82435390D02*
X142119047Y-82483009D01*
X142119047Y-82483009D02*
X142023809Y-82530628D01*
X142023809Y-82530628D02*
X141642857Y-82530628D01*
X142785714Y-82435390D02*
X142690476Y-82387771D01*
X142690476Y-82387771D02*
X142642857Y-82340152D01*
X142642857Y-82340152D02*
X142595238Y-82244914D01*
X142595238Y-82244914D02*
X142595238Y-82197295D01*
X142595238Y-82197295D02*
X142642857Y-82102057D01*
X142642857Y-82102057D02*
X142690476Y-82054438D01*
X142690476Y-82054438D02*
X142785714Y-82006819D01*
X142785714Y-82006819D02*
X142976190Y-82006819D01*
X142976190Y-82006819D02*
X143071428Y-82054438D01*
X143071428Y-82054438D02*
X143119047Y-82102057D01*
X143119047Y-82102057D02*
X143166666Y-82197295D01*
X143166666Y-82197295D02*
X143166666Y-82244914D01*
X143166666Y-82244914D02*
X143119047Y-82340152D01*
X143119047Y-82340152D02*
X143071428Y-82387771D01*
X143071428Y-82387771D02*
X142976190Y-82435390D01*
X142976190Y-82435390D02*
X142785714Y-82435390D01*
X142785714Y-82435390D02*
X142690476Y-82483009D01*
X142690476Y-82483009D02*
X142642857Y-82530628D01*
X142642857Y-82530628D02*
X142595238Y-82625866D01*
X142595238Y-82625866D02*
X142595238Y-82816342D01*
X142595238Y-82816342D02*
X142642857Y-82911580D01*
X142642857Y-82911580D02*
X142690476Y-82959200D01*
X142690476Y-82959200D02*
X142785714Y-83006819D01*
X142785714Y-83006819D02*
X142976190Y-83006819D01*
X142976190Y-83006819D02*
X143071428Y-82959200D01*
X143071428Y-82959200D02*
X143119047Y-82911580D01*
X143119047Y-82911580D02*
X143166666Y-82816342D01*
X143166666Y-82816342D02*
X143166666Y-82625866D01*
X143166666Y-82625866D02*
X143119047Y-82530628D01*
X143119047Y-82530628D02*
X143071428Y-82483009D01*
X143071428Y-82483009D02*
X142976190Y-82435390D01*
X88825433Y-69651319D02*
X88492100Y-69175128D01*
X88254005Y-69651319D02*
X88254005Y-68651319D01*
X88254005Y-68651319D02*
X88634957Y-68651319D01*
X88634957Y-68651319D02*
X88730195Y-68698938D01*
X88730195Y-68698938D02*
X88777814Y-68746557D01*
X88777814Y-68746557D02*
X88825433Y-68841795D01*
X88825433Y-68841795D02*
X88825433Y-68984652D01*
X88825433Y-68984652D02*
X88777814Y-69079890D01*
X88777814Y-69079890D02*
X88730195Y-69127509D01*
X88730195Y-69127509D02*
X88634957Y-69175128D01*
X88634957Y-69175128D02*
X88254005Y-69175128D01*
X89158767Y-68651319D02*
X89777814Y-68651319D01*
X89777814Y-68651319D02*
X89444481Y-69032271D01*
X89444481Y-69032271D02*
X89587338Y-69032271D01*
X89587338Y-69032271D02*
X89682576Y-69079890D01*
X89682576Y-69079890D02*
X89730195Y-69127509D01*
X89730195Y-69127509D02*
X89777814Y-69222747D01*
X89777814Y-69222747D02*
X89777814Y-69460842D01*
X89777814Y-69460842D02*
X89730195Y-69556080D01*
X89730195Y-69556080D02*
X89682576Y-69603700D01*
X89682576Y-69603700D02*
X89587338Y-69651319D01*
X89587338Y-69651319D02*
X89301624Y-69651319D01*
X89301624Y-69651319D02*
X89206386Y-69603700D01*
X89206386Y-69603700D02*
X89158767Y-69556080D01*
X143738095Y-67184819D02*
X143738095Y-67994342D01*
X143738095Y-67994342D02*
X143785714Y-68089580D01*
X143785714Y-68089580D02*
X143833333Y-68137200D01*
X143833333Y-68137200D02*
X143928571Y-68184819D01*
X143928571Y-68184819D02*
X144119047Y-68184819D01*
X144119047Y-68184819D02*
X144214285Y-68137200D01*
X144214285Y-68137200D02*
X144261904Y-68089580D01*
X144261904Y-68089580D02*
X144309523Y-67994342D01*
X144309523Y-67994342D02*
X144309523Y-67184819D01*
X145214285Y-67518152D02*
X145214285Y-68184819D01*
X144976190Y-67137200D02*
X144738095Y-67851485D01*
X144738095Y-67851485D02*
X145357142Y-67851485D01*
X119238095Y-80506819D02*
X119809523Y-80506819D01*
X119523809Y-81506819D02*
X119523809Y-80506819D01*
X120142857Y-81506819D02*
X120142857Y-80506819D01*
X120142857Y-80506819D02*
X120523809Y-80506819D01*
X120523809Y-80506819D02*
X120619047Y-80554438D01*
X120619047Y-80554438D02*
X120666666Y-80602057D01*
X120666666Y-80602057D02*
X120714285Y-80697295D01*
X120714285Y-80697295D02*
X120714285Y-80840152D01*
X120714285Y-80840152D02*
X120666666Y-80935390D01*
X120666666Y-80935390D02*
X120619047Y-80983009D01*
X120619047Y-80983009D02*
X120523809Y-81030628D01*
X120523809Y-81030628D02*
X120142857Y-81030628D01*
X121619047Y-80506819D02*
X121142857Y-80506819D01*
X121142857Y-80506819D02*
X121095238Y-80983009D01*
X121095238Y-80983009D02*
X121142857Y-80935390D01*
X121142857Y-80935390D02*
X121238095Y-80887771D01*
X121238095Y-80887771D02*
X121476190Y-80887771D01*
X121476190Y-80887771D02*
X121571428Y-80935390D01*
X121571428Y-80935390D02*
X121619047Y-80983009D01*
X121619047Y-80983009D02*
X121666666Y-81078247D01*
X121666666Y-81078247D02*
X121666666Y-81316342D01*
X121666666Y-81316342D02*
X121619047Y-81411580D01*
X121619047Y-81411580D02*
X121571428Y-81459200D01*
X121571428Y-81459200D02*
X121476190Y-81506819D01*
X121476190Y-81506819D02*
X121238095Y-81506819D01*
X121238095Y-81506819D02*
X121142857Y-81459200D01*
X121142857Y-81459200D02*
X121095238Y-81411580D01*
X110784757Y-60095238D02*
X110737138Y-60190476D01*
X110737138Y-60190476D02*
X110641900Y-60285714D01*
X110641900Y-60285714D02*
X110499042Y-60428571D01*
X110499042Y-60428571D02*
X110451423Y-60523809D01*
X110451423Y-60523809D02*
X110451423Y-60619047D01*
X110689519Y-60571428D02*
X110641900Y-60666666D01*
X110641900Y-60666666D02*
X110546661Y-60761904D01*
X110546661Y-60761904D02*
X110356185Y-60809523D01*
X110356185Y-60809523D02*
X110022852Y-60809523D01*
X110022852Y-60809523D02*
X109832376Y-60761904D01*
X109832376Y-60761904D02*
X109737138Y-60666666D01*
X109737138Y-60666666D02*
X109689519Y-60571428D01*
X109689519Y-60571428D02*
X109689519Y-60380952D01*
X109689519Y-60380952D02*
X109737138Y-60285714D01*
X109737138Y-60285714D02*
X109832376Y-60190476D01*
X109832376Y-60190476D02*
X110022852Y-60142857D01*
X110022852Y-60142857D02*
X110356185Y-60142857D01*
X110356185Y-60142857D02*
X110546661Y-60190476D01*
X110546661Y-60190476D02*
X110641900Y-60285714D01*
X110641900Y-60285714D02*
X110689519Y-60380952D01*
X110689519Y-60380952D02*
X110689519Y-60571428D01*
X109689519Y-59809523D02*
X109689519Y-59190476D01*
X109689519Y-59190476D02*
X110070471Y-59523809D01*
X110070471Y-59523809D02*
X110070471Y-59380952D01*
X110070471Y-59380952D02*
X110118090Y-59285714D01*
X110118090Y-59285714D02*
X110165709Y-59238095D01*
X110165709Y-59238095D02*
X110260947Y-59190476D01*
X110260947Y-59190476D02*
X110499042Y-59190476D01*
X110499042Y-59190476D02*
X110594280Y-59238095D01*
X110594280Y-59238095D02*
X110641900Y-59285714D01*
X110641900Y-59285714D02*
X110689519Y-59380952D01*
X110689519Y-59380952D02*
X110689519Y-59666666D01*
X110689519Y-59666666D02*
X110641900Y-59761904D01*
X110641900Y-59761904D02*
X110594280Y-59809523D01*
X109868319Y-65206999D02*
X110106414Y-65206999D01*
X110011176Y-65445094D02*
X110106414Y-65206999D01*
X110106414Y-65206999D02*
X110011176Y-64968904D01*
X110296890Y-65349856D02*
X110106414Y-65206999D01*
X110106414Y-65206999D02*
X110296890Y-65064142D01*
X109868319Y-65206999D02*
X110106414Y-65206999D01*
X110011176Y-65445094D02*
X110106414Y-65206999D01*
X110106414Y-65206999D02*
X110011176Y-64968904D01*
X110296890Y-65349856D02*
X110106414Y-65206999D01*
X110106414Y-65206999D02*
X110296890Y-65064142D01*
X127293333Y-75374819D02*
X126960000Y-74898628D01*
X126721905Y-75374819D02*
X126721905Y-74374819D01*
X126721905Y-74374819D02*
X127102857Y-74374819D01*
X127102857Y-74374819D02*
X127198095Y-74422438D01*
X127198095Y-74422438D02*
X127245714Y-74470057D01*
X127245714Y-74470057D02*
X127293333Y-74565295D01*
X127293333Y-74565295D02*
X127293333Y-74708152D01*
X127293333Y-74708152D02*
X127245714Y-74803390D01*
X127245714Y-74803390D02*
X127198095Y-74851009D01*
X127198095Y-74851009D02*
X127102857Y-74898628D01*
X127102857Y-74898628D02*
X126721905Y-74898628D01*
X128150476Y-74374819D02*
X127960000Y-74374819D01*
X127960000Y-74374819D02*
X127864762Y-74422438D01*
X127864762Y-74422438D02*
X127817143Y-74470057D01*
X127817143Y-74470057D02*
X127721905Y-74612914D01*
X127721905Y-74612914D02*
X127674286Y-74803390D01*
X127674286Y-74803390D02*
X127674286Y-75184342D01*
X127674286Y-75184342D02*
X127721905Y-75279580D01*
X127721905Y-75279580D02*
X127769524Y-75327200D01*
X127769524Y-75327200D02*
X127864762Y-75374819D01*
X127864762Y-75374819D02*
X128055238Y-75374819D01*
X128055238Y-75374819D02*
X128150476Y-75327200D01*
X128150476Y-75327200D02*
X128198095Y-75279580D01*
X128198095Y-75279580D02*
X128245714Y-75184342D01*
X128245714Y-75184342D02*
X128245714Y-74946247D01*
X128245714Y-74946247D02*
X128198095Y-74851009D01*
X128198095Y-74851009D02*
X128150476Y-74803390D01*
X128150476Y-74803390D02*
X128055238Y-74755771D01*
X128055238Y-74755771D02*
X127864762Y-74755771D01*
X127864762Y-74755771D02*
X127769524Y-74803390D01*
X127769524Y-74803390D02*
X127721905Y-74851009D01*
X127721905Y-74851009D02*
X127674286Y-74946247D01*
X116238095Y-59006819D02*
X116809523Y-59006819D01*
X116523809Y-60006819D02*
X116523809Y-59006819D01*
X117142857Y-60006819D02*
X117142857Y-59006819D01*
X117142857Y-59006819D02*
X117523809Y-59006819D01*
X117523809Y-59006819D02*
X117619047Y-59054438D01*
X117619047Y-59054438D02*
X117666666Y-59102057D01*
X117666666Y-59102057D02*
X117714285Y-59197295D01*
X117714285Y-59197295D02*
X117714285Y-59340152D01*
X117714285Y-59340152D02*
X117666666Y-59435390D01*
X117666666Y-59435390D02*
X117619047Y-59483009D01*
X117619047Y-59483009D02*
X117523809Y-59530628D01*
X117523809Y-59530628D02*
X117142857Y-59530628D01*
X118571428Y-59006819D02*
X118380952Y-59006819D01*
X118380952Y-59006819D02*
X118285714Y-59054438D01*
X118285714Y-59054438D02*
X118238095Y-59102057D01*
X118238095Y-59102057D02*
X118142857Y-59244914D01*
X118142857Y-59244914D02*
X118095238Y-59435390D01*
X118095238Y-59435390D02*
X118095238Y-59816342D01*
X118095238Y-59816342D02*
X118142857Y-59911580D01*
X118142857Y-59911580D02*
X118190476Y-59959200D01*
X118190476Y-59959200D02*
X118285714Y-60006819D01*
X118285714Y-60006819D02*
X118476190Y-60006819D01*
X118476190Y-60006819D02*
X118571428Y-59959200D01*
X118571428Y-59959200D02*
X118619047Y-59911580D01*
X118619047Y-59911580D02*
X118666666Y-59816342D01*
X118666666Y-59816342D02*
X118666666Y-59578247D01*
X118666666Y-59578247D02*
X118619047Y-59483009D01*
X118619047Y-59483009D02*
X118571428Y-59435390D01*
X118571428Y-59435390D02*
X118476190Y-59387771D01*
X118476190Y-59387771D02*
X118285714Y-59387771D01*
X118285714Y-59387771D02*
X118190476Y-59435390D01*
X118190476Y-59435390D02*
X118142857Y-59483009D01*
X118142857Y-59483009D02*
X118095238Y-59578247D01*
X74261905Y-67954819D02*
X74261905Y-66954819D01*
X74261905Y-66954819D02*
X74500000Y-66954819D01*
X74500000Y-66954819D02*
X74642857Y-67002438D01*
X74642857Y-67002438D02*
X74738095Y-67097676D01*
X74738095Y-67097676D02*
X74785714Y-67192914D01*
X74785714Y-67192914D02*
X74833333Y-67383390D01*
X74833333Y-67383390D02*
X74833333Y-67526247D01*
X74833333Y-67526247D02*
X74785714Y-67716723D01*
X74785714Y-67716723D02*
X74738095Y-67811961D01*
X74738095Y-67811961D02*
X74642857Y-67907200D01*
X74642857Y-67907200D02*
X74500000Y-67954819D01*
X74500000Y-67954819D02*
X74261905Y-67954819D01*
X75785714Y-67954819D02*
X75214286Y-67954819D01*
X75500000Y-67954819D02*
X75500000Y-66954819D01*
X75500000Y-66954819D02*
X75404762Y-67097676D01*
X75404762Y-67097676D02*
X75309524Y-67192914D01*
X75309524Y-67192914D02*
X75214286Y-67240533D01*
X136738095Y-62006819D02*
X137309523Y-62006819D01*
X137023809Y-63006819D02*
X137023809Y-62006819D01*
X137642857Y-63006819D02*
X137642857Y-62006819D01*
X137642857Y-62006819D02*
X138023809Y-62006819D01*
X138023809Y-62006819D02*
X138119047Y-62054438D01*
X138119047Y-62054438D02*
X138166666Y-62102057D01*
X138166666Y-62102057D02*
X138214285Y-62197295D01*
X138214285Y-62197295D02*
X138214285Y-62340152D01*
X138214285Y-62340152D02*
X138166666Y-62435390D01*
X138166666Y-62435390D02*
X138119047Y-62483009D01*
X138119047Y-62483009D02*
X138023809Y-62530628D01*
X138023809Y-62530628D02*
X137642857Y-62530628D01*
X138595238Y-62102057D02*
X138642857Y-62054438D01*
X138642857Y-62054438D02*
X138738095Y-62006819D01*
X138738095Y-62006819D02*
X138976190Y-62006819D01*
X138976190Y-62006819D02*
X139071428Y-62054438D01*
X139071428Y-62054438D02*
X139119047Y-62102057D01*
X139119047Y-62102057D02*
X139166666Y-62197295D01*
X139166666Y-62197295D02*
X139166666Y-62292533D01*
X139166666Y-62292533D02*
X139119047Y-62435390D01*
X139119047Y-62435390D02*
X138547619Y-63006819D01*
X138547619Y-63006819D02*
X139166666Y-63006819D01*
X156666666Y-51954819D02*
X156333333Y-51478628D01*
X156095238Y-51954819D02*
X156095238Y-50954819D01*
X156095238Y-50954819D02*
X156476190Y-50954819D01*
X156476190Y-50954819D02*
X156571428Y-51002438D01*
X156571428Y-51002438D02*
X156619047Y-51050057D01*
X156619047Y-51050057D02*
X156666666Y-51145295D01*
X156666666Y-51145295D02*
X156666666Y-51288152D01*
X156666666Y-51288152D02*
X156619047Y-51383390D01*
X156619047Y-51383390D02*
X156571428Y-51431009D01*
X156571428Y-51431009D02*
X156476190Y-51478628D01*
X156476190Y-51478628D02*
X156095238Y-51478628D01*
X157095238Y-51431009D02*
X157428571Y-51431009D01*
X157571428Y-51954819D02*
X157095238Y-51954819D01*
X157095238Y-51954819D02*
X157095238Y-50954819D01*
X157095238Y-50954819D02*
X157571428Y-50954819D01*
X158333333Y-51431009D02*
X158000000Y-51431009D01*
X158000000Y-51954819D02*
X158000000Y-50954819D01*
X158000000Y-50954819D02*
X158476190Y-50954819D01*
X159000000Y-50954819D02*
X159000000Y-51192914D01*
X158761905Y-51097676D02*
X159000000Y-51192914D01*
X159000000Y-51192914D02*
X159238095Y-51097676D01*
X158857143Y-51383390D02*
X159000000Y-51192914D01*
X159000000Y-51192914D02*
X159142857Y-51383390D01*
X159761905Y-50954819D02*
X159761905Y-51192914D01*
X159523810Y-51097676D02*
X159761905Y-51192914D01*
X159761905Y-51192914D02*
X160000000Y-51097676D01*
X159619048Y-51383390D02*
X159761905Y-51192914D01*
X159761905Y-51192914D02*
X159904762Y-51383390D01*
X156666666Y-91954819D02*
X156333333Y-91478628D01*
X156095238Y-91954819D02*
X156095238Y-90954819D01*
X156095238Y-90954819D02*
X156476190Y-90954819D01*
X156476190Y-90954819D02*
X156571428Y-91002438D01*
X156571428Y-91002438D02*
X156619047Y-91050057D01*
X156619047Y-91050057D02*
X156666666Y-91145295D01*
X156666666Y-91145295D02*
X156666666Y-91288152D01*
X156666666Y-91288152D02*
X156619047Y-91383390D01*
X156619047Y-91383390D02*
X156571428Y-91431009D01*
X156571428Y-91431009D02*
X156476190Y-91478628D01*
X156476190Y-91478628D02*
X156095238Y-91478628D01*
X157095238Y-91431009D02*
X157428571Y-91431009D01*
X157571428Y-91954819D02*
X157095238Y-91954819D01*
X157095238Y-91954819D02*
X157095238Y-90954819D01*
X157095238Y-90954819D02*
X157571428Y-90954819D01*
X158333333Y-91431009D02*
X158000000Y-91431009D01*
X158000000Y-91954819D02*
X158000000Y-90954819D01*
X158000000Y-90954819D02*
X158476190Y-90954819D01*
X159000000Y-90954819D02*
X159000000Y-91192914D01*
X158761905Y-91097676D02*
X159000000Y-91192914D01*
X159000000Y-91192914D02*
X159238095Y-91097676D01*
X158857143Y-91383390D02*
X159000000Y-91192914D01*
X159000000Y-91192914D02*
X159142857Y-91383390D01*
X159761905Y-90954819D02*
X159761905Y-91192914D01*
X159523810Y-91097676D02*
X159761905Y-91192914D01*
X159761905Y-91192914D02*
X160000000Y-91097676D01*
X159619048Y-91383390D02*
X159761905Y-91192914D01*
X159761905Y-91192914D02*
X159904762Y-91383390D01*
D13*
%TO.C,TP1*%
X149800000Y-67300000D02*
X151200000Y-67300000D01*
X149800000Y-68700000D02*
X149800000Y-67300000D01*
X151200000Y-67300000D02*
X151200000Y-68700000D01*
X151200000Y-68700000D02*
X149800000Y-68700000D01*
%TO.C,TP4*%
X116800000Y-73300000D02*
X118200000Y-73300000D01*
X116800000Y-74700000D02*
X116800000Y-73300000D01*
X118200000Y-73300000D02*
X118200000Y-74700000D01*
X118200000Y-74700000D02*
X116800000Y-74700000D01*
D14*
%TO.C,Q1*%
X101026800Y-68007500D02*
X101026800Y-68411360D01*
X101026800Y-74588640D02*
X101026800Y-74992500D01*
X101026800Y-74992500D02*
X107503800Y-74992500D01*
X107503800Y-68007500D02*
X101026800Y-68007500D01*
X107503800Y-70928500D02*
X107503800Y-68007500D01*
X107503800Y-72071500D02*
X108519800Y-72071500D01*
X107503800Y-74992500D02*
X107503800Y-72071500D01*
X107986400Y-68769500D02*
X109078600Y-68769500D01*
X107986400Y-69658500D02*
X109078600Y-69658500D01*
X107986400Y-73341500D02*
X109078600Y-73341500D01*
X107986400Y-74230500D02*
X109078600Y-74230500D01*
X108519800Y-70928500D02*
X107503800Y-70928500D01*
X108519800Y-72071500D02*
X108519800Y-70928500D01*
D13*
%TO.C,D2*%
X61400000Y-68300000D02*
X67500000Y-68300000D01*
X61400000Y-69400000D02*
X61400000Y-68300000D01*
X67500000Y-73700000D02*
X62500000Y-73700000D01*
%TO.C,R1*%
X88532100Y-64116500D02*
X90192100Y-64116500D01*
X88532100Y-64116500D02*
G75*
G02*
X84692100Y-64116500I-1920000J0D01*
G01*
X84692100Y-64116500D02*
G75*
G02*
X88532100Y-64116500I1920000J0D01*
G01*
D14*
%TO.C,Q2*%
X101026800Y-80007500D02*
X101026800Y-80411360D01*
X101026800Y-86588640D02*
X101026800Y-86992500D01*
X101026800Y-86992500D02*
X107503800Y-86992500D01*
X107503800Y-80007500D02*
X101026800Y-80007500D01*
X107503800Y-82928500D02*
X107503800Y-80007500D01*
X107503800Y-84071500D02*
X108519800Y-84071500D01*
X107503800Y-86992500D02*
X107503800Y-84071500D01*
X107986400Y-80769500D02*
X109078600Y-80769500D01*
X107986400Y-81658500D02*
X109078600Y-81658500D01*
X107986400Y-85341500D02*
X109078600Y-85341500D01*
X107986400Y-86230500D02*
X109078600Y-86230500D01*
X108519800Y-82928500D02*
X107503800Y-82928500D01*
X108519800Y-84071500D02*
X108519800Y-82928500D01*
D13*
%TO.C,R5*%
X128080000Y-64000000D02*
X126420000Y-64000000D01*
X131920000Y-64000000D02*
G75*
G02*
X128080000Y-64000000I-1920000J0D01*
G01*
X128080000Y-64000000D02*
G75*
G02*
X131920000Y-64000000I1920000J0D01*
G01*
%TO.C,D4*%
X51400000Y-68300000D02*
X57500000Y-68300000D01*
X51400000Y-69400000D02*
X51400000Y-68300000D01*
X57500000Y-73700000D02*
X52500000Y-73700000D01*
%TO.C,TP7*%
X90800000Y-84300000D02*
X92200000Y-84300000D01*
X90800000Y-85700000D02*
X90800000Y-84300000D01*
X92200000Y-84300000D02*
X92200000Y-85700000D01*
X92200000Y-85700000D02*
X90800000Y-85700000D01*
%TO.C,R2*%
X88372100Y-80116500D02*
X90032100Y-80116500D01*
X88372100Y-80116500D02*
G75*
G02*
X84532100Y-80116500I-1920000J0D01*
G01*
X84532100Y-80116500D02*
G75*
G02*
X88372100Y-80116500I1920000J0D01*
G01*
%TO.C,R4*%
X128080000Y-80000000D02*
X126420000Y-80000000D01*
X131920000Y-80000000D02*
G75*
G02*
X128080000Y-80000000I-1920000J0D01*
G01*
X128080000Y-80000000D02*
G75*
G02*
X131920000Y-80000000I1920000J0D01*
G01*
%TO.C,TP8*%
X141300000Y-83300000D02*
X142700000Y-83300000D01*
X141300000Y-84700000D02*
X141300000Y-83300000D01*
X142700000Y-83300000D02*
X142700000Y-84700000D01*
X142700000Y-84700000D02*
X141300000Y-84700000D01*
%TO.C,R3*%
X88372100Y-72116500D02*
X90032100Y-72116500D01*
X88372100Y-72116500D02*
G75*
G02*
X84532100Y-72116500I-1920000J0D01*
G01*
X84532100Y-72116500D02*
G75*
G02*
X88372100Y-72116500I1920000J0D01*
G01*
%TO.C,U4*%
X143170000Y-71770000D02*
X143170000Y-79450000D01*
X143170000Y-71770000D02*
X145830000Y-71770000D01*
X143170000Y-79450000D02*
X145830000Y-79450000D01*
X144500000Y-69170000D02*
X145830000Y-69170000D01*
X145830000Y-69170000D02*
X145830000Y-70500000D01*
X145830000Y-71770000D02*
X145830000Y-79450000D01*
%TO.C,TP5*%
X119800000Y-81800000D02*
X121200000Y-81800000D01*
X119800000Y-83200000D02*
X119800000Y-81800000D01*
X121200000Y-81800000D02*
X121200000Y-83200000D01*
X121200000Y-83200000D02*
X119800000Y-83200000D01*
D14*
%TO.C,Q3*%
X100761500Y-56507500D02*
X100761500Y-56911360D01*
X100761500Y-63088640D02*
X100761500Y-63492500D01*
X100761500Y-63492500D02*
X107238500Y-63492500D01*
X107238500Y-56507500D02*
X100761500Y-56507500D01*
X107238500Y-59428500D02*
X107238500Y-56507500D01*
X107238500Y-60571500D02*
X108254500Y-60571500D01*
X107238500Y-63492500D02*
X107238500Y-60571500D01*
X107721100Y-57269500D02*
X108813300Y-57269500D01*
X107721100Y-58158500D02*
X108813300Y-58158500D01*
X107721100Y-61841500D02*
X108813300Y-61841500D01*
X107721100Y-62730500D02*
X108813300Y-62730500D01*
X108254500Y-59428500D02*
X107238500Y-59428500D01*
X108254500Y-60571500D02*
X108254500Y-59428500D01*
D13*
%TO.C,R6*%
X128080000Y-72000000D02*
X126420000Y-72000000D01*
X131920000Y-72000000D02*
G75*
G02*
X128080000Y-72000000I-1920000J0D01*
G01*
X128080000Y-72000000D02*
G75*
G02*
X131920000Y-72000000I1920000J0D01*
G01*
%TO.C,40_Pin_Header1*%
X47770000Y-92170000D02*
X47770000Y-97370000D01*
X146890000Y-92170000D02*
X47770000Y-92170000D01*
X146890000Y-92170000D02*
X146890000Y-94770000D01*
X146890000Y-94770000D02*
X149490000Y-94770000D01*
X148160000Y-92170000D02*
X149490000Y-92170000D01*
X149490000Y-92170000D02*
X149490000Y-93500000D01*
X149490000Y-94770000D02*
X149490000Y-97370000D01*
X149490000Y-97370000D02*
X47770000Y-97370000D01*
%TO.C,TP6*%
X116800000Y-60300000D02*
X118200000Y-60300000D01*
X116800000Y-61700000D02*
X116800000Y-60300000D01*
X118200000Y-60300000D02*
X118200000Y-61700000D01*
X118200000Y-61700000D02*
X116800000Y-61700000D01*
%TO.C,D1*%
X71400000Y-68300000D02*
X77500000Y-68300000D01*
X71400000Y-69400000D02*
X71400000Y-68300000D01*
X77500000Y-73700000D02*
X72500000Y-73700000D01*
%TO.C,TP2*%
X137300000Y-63300000D02*
X138700000Y-63300000D01*
X137300000Y-64700000D02*
X137300000Y-63300000D01*
X138700000Y-63300000D02*
X138700000Y-64700000D01*
X138700000Y-64700000D02*
X137300000Y-64700000D01*
%TD*%
M02*
