M48
; DRILL file {KiCad 8.0.6} date 2024-11-20T23:28:54-0800
; FORMAT={-:-/ absolute / inch / decimal}
; #@! TF.CreationDate,2024-11-20T23:28:54-08:00
; #@! TF.GenerationSoftware,Kicad,Pcbnew,8.0.6
; #@! TF.FileFunction,Plated,1,2,PTH
FMAT,2
INCH
; #@! TA.AperFunction,Plated,PTH,ViaDrill
T1C0.0118
; #@! TA.AperFunction,Plated,PTH,ComponentDrill
T2C0.0394
; #@! TA.AperFunction,Plated,PTH,ComponentDrill
T3C0.0472
; #@! TA.AperFunction,Plated,PTH,ComponentDrill
T4C0.1378
%
G90
G05
T1
X2.0709Y-2.8622
X2.2598Y-2.7953
X2.4646Y-2.8622
X2.6535Y-2.7953
X2.8583Y-2.8622
X3.0472Y-2.7953
X3.6024Y-3.3465
X4.347Y-2.2722
X4.3574Y-2.725
X4.3574Y-3.1974
X4.3574Y-3.3774
X4.7441Y-3.248
X5.4331Y-2.5197
X5.9252Y-2.6772
T2
X1.9331Y-3.6811
X1.9331Y-3.7811
X2.0331Y-3.6811
X2.0331Y-3.7811
X2.1331Y-3.6811
X2.1331Y-3.7811
X2.2331Y-3.6811
X2.2331Y-3.7811
X2.3331Y-3.6811
X2.3331Y-3.7811
X2.4331Y-3.6811
X2.4331Y-3.7811
X2.5331Y-3.6811
X2.5331Y-3.7811
X2.6331Y-3.6811
X2.6331Y-3.7811
X2.7331Y-3.6811
X2.7331Y-3.7811
X2.8331Y-3.6811
X2.8331Y-3.7811
X2.9331Y-3.6811
X2.9331Y-3.7811
X3.0331Y-3.6811
X3.0331Y-3.7811
X3.1331Y-3.6811
X3.1331Y-3.7811
X3.2331Y-3.6811
X3.2331Y-3.7811
X3.3331Y-3.6811
X3.3331Y-3.7811
X3.4331Y-3.6811
X3.4331Y-3.7811
X3.5331Y-3.6811
X3.5331Y-3.7811
X3.6331Y-3.6811
X3.6331Y-3.7811
X3.7331Y-3.6811
X3.7331Y-3.7811
X3.8331Y-3.6811
X3.8331Y-3.7811
X3.9331Y-3.6811
X3.9331Y-3.7811
X4.0331Y-3.6811
X4.0331Y-3.7811
X4.1331Y-3.6811
X4.1331Y-3.7811
X4.2331Y-3.6811
X4.2331Y-3.7811
X4.3331Y-3.6811
X4.3331Y-3.7811
X4.4331Y-3.6811
X4.4331Y-3.7811
X4.5331Y-3.6811
X4.5331Y-3.7811
X4.6331Y-3.6811
X4.6331Y-3.7811
X4.7331Y-3.6811
X4.7331Y-3.7811
X4.8331Y-3.6811
X4.8331Y-3.7811
X4.9331Y-3.6811
X4.9331Y-3.7811
X5.0331Y-3.6811
X5.0331Y-3.7811
X5.1331Y-3.6811
X5.1331Y-3.7811
X5.2331Y-3.6811
X5.2331Y-3.7811
X5.3331Y-3.6811
X5.3331Y-3.7811
X5.4331Y-3.6811
X5.4331Y-3.7811
X5.5331Y-3.6811
X5.5331Y-3.7811
X5.6331Y-3.6811
X5.6331Y-3.7811
X5.689Y-2.7756
X5.689Y-2.8756
X5.689Y-2.9756
X5.689Y-3.0756
X5.7331Y-3.6811
X5.7331Y-3.7811
X5.8331Y-3.6811
X5.8331Y-3.7811
T3
X3.4036Y-2.8392
X3.4036Y-3.1542
X3.4099Y-2.5243
X3.6036Y-2.8392
X3.6036Y-3.1542
X3.6099Y-2.5243
X4.9181Y-2.5197
X4.9181Y-2.8346
X4.9181Y-3.1496
X5.1181Y-2.5197
X5.1181Y-2.8346
X5.1181Y-3.1496
T4
X1.7323Y-2.2047
X1.7323Y-3.7795
X6.2205Y-2.2047
X6.2205Y-3.7795
M30
